<svg xmlns="http://www.w3.org/2000/svg" width="55.025" height="58.945" viewBox="0 0 55.025 58.945"><g transform="translate(-1225.975 -1466)"><path d="M62.04,72.6V46.514c0-2.211,1.151-3.354,3.374-3.354h36.532a2.987,2.987,0,0,1,3.328,3.339q0,7.427,0,14.855a4.775,4.775,0,0,1-.01.553.962.962,0,0,1-.994.891.944.944,0,0,1-.946-.874,4.019,4.019,0,0,1-.013-.613V46.516c0-1.094-.294-1.391-1.371-1.391H65.407c-1.119,0-1.4.287-1.4,1.425V98.728c0,1.125.285,1.409,1.415,1.409H86.116a3.638,3.638,0,0,1,.613.015.975.975,0,0,1,0,1.934,2.937,2.937,0,0,1-.551.015q-10.439,0-20.876,0a2.977,2.977,0,0,1-3.259-3.287Q62.038,85.71,62.04,72.6Z" transform="translate(1163.935 1422.84)" fill="#0e2854"/><path d="M257.293,193.595v17.253c0,1.127-.287,1.412-1.414,1.412H231.192c-1.127,0-1.412-.285-1.412-1.414V176.341c0-1.128.284-1.411,1.412-1.411H255.88c1.128,0,1.412.285,1.412,1.412Q257.3,184.968,257.293,193.595ZM255.3,176.938H231.8v33.324H255.3Z" transform="translate(1023.706 1312.682)" fill="#0e2854"/><path d="M111.846,292.467a7.859,7.859,0,1,1,7.856-7.83A7.873,7.873,0,0,1,111.846,292.467Zm3.375-3.06c-.166-.18-.3-.33-.438-.471-1.11-1.114-2.213-2.239-3.343-3.333a1.769,1.769,0,0,1-.584-1.406c.028-1.775.01-3.551.01-5.327-1.921.061-4.017,1.891-4.66,4.028a5.89,5.89,0,0,0,2.229,6.511A5.831,5.831,0,0,0,115.222,289.407Zm-2.39-10.617c0,1.363.074,2.632-.023,3.889a2.85,2.85,0,0,0,1.068,2.6c.964.835,1.819,1.8,2.769,2.755a5.754,5.754,0,0,0,.686-5.549A5.836,5.836,0,0,0,112.832,278.79Z" transform="translate(1128.865 1227.562)" fill="#0e2854"/><path d="M106.871,75.4c.141-.789-.323-2,.987-2.021,1.363-.02.9,1.224,1.041,2.029a3.974,3.974,0,0,1,2.851,3.146,3.018,3.018,0,0,1,.057.485A1.011,1.011,0,0,1,110.9,80.2c-.566.039-.973-.361-1.05-1.033a1.965,1.965,0,1,0-1.944,2.021,3.922,3.922,0,0,1,1.515,7.528c-.418.174-.654.359-.556.832a1.105,1.105,0,0,1,0,.244c-.01.771-.377,1.222-.989,1.217s-.968-.454-.974-1.23c0-.266,0-.53,0-.812-.2-.085-.387-.161-.571-.244a3.886,3.886,0,0,1-2.359-3.2c-.1-.786.246-1.31.869-1.373.6-.061.991.346,1.084,1.125a1.963,1.963,0,1,0,1.9-2.116,3.928,3.928,0,0,1-1.465-7.553C106.536,75.532,106.707,75.465,106.871,75.4Z" transform="translate(1128.899 1397.578)" fill="#2b99bc"/><path d="M184.943,140.824c-2.5,0-4.994.007-7.492-.008a1.291,1.291,0,0,1-.855-.207,1.276,1.276,0,0,1-.359-.994,1.312,1.312,0,0,1,.85-.717,7.567,7.567,0,0,1,1.65-.038h13.57c.164,0,.328-.007.49,0a.987.987,0,0,1,1.041.978.974.974,0,0,1-1.038.979c-1.207.016-2.416.007-3.623.007Q187.063,140.823,184.943,140.824Z" transform="translate(1068.484 1342.859)" fill="#2b99bc"/><path d="M112.342,212.81q-3.592,0-7.184,0c-.674,0-1.086-.318-1.156-.858a1,1,0,0,1,1.094-1.1c1.125-.011,2.252,0,3.377,0,3.643,0,7.287,0,10.93.01a1.327,1.327,0,0,1,.9.244,1.418,1.418,0,0,1,.307,1.022c-.075.5-.518.689-1.022.689q-2.517,0-5.035,0Q113.448,212.811,112.342,212.81Z" transform="translate(1128.863 1282.659)" fill="#0e2854"/><path d="M112.351,246.774c2.395,0,4.791-.021,7.184.023a1.466,1.466,0,0,1,1,.527,1,1,0,0,1-.039.941,1.3,1.3,0,0,1-.922.454c-4.83.028-9.66.023-14.492.016a.985.985,0,1,1,.023-1.957C107.521,246.769,109.937,246.774,112.351,246.774Z" transform="translate(1128.865 1252.626)" fill="#0e2854"/><path d="M180.753,105.013c-1.228,0-2.457,0-3.684,0-.727,0-1.164-.379-1.169-.974s.433-.984,1.155-.986q3.744-.007,7.491,0c.725,0,1.164.379,1.169.973s-.438.982-1.156.987C183.29,105.018,182.021,105.013,180.753,105.013Z" transform="translate(1068.75 1372.775)" fill="#0e2854"/><path d="M263.571,206.735q-4.237,0-8.475,0c-1.04,0-1.345-.308-1.345-1.356q0-2.64,0-5.28c0-.879.346-1.22,1.232-1.222q8.6,0,17.194,0c.879,0,1.22.346,1.224,1.232q.007,2.7,0,5.4c0,.877-.349,1.222-1.233,1.222Q267.868,206.739,263.571,206.735Zm-7.828-2.008h15.644v-3.853H255.743Z" transform="translate(1003.668 1292.664)" fill="#2b99bc"/><path d="M256.749,272.69c-.635,0-1.269.012-1.9,0a.982.982,0,1,1,.023-1.957q1.872-.02,3.744,0a.978.978,0,0,1,1.06.958,1,1,0,0,1-1.081,1c-.02,0-.041,0-.061,0Q257.639,272.692,256.749,272.69Z" transform="translate(1003.635 1232.603)" fill="#0e2854"/><path d="M298.7,272.7c-.635,0-1.269.011-1.9,0a.982.982,0,1,1,0-1.955q1.872-.02,3.744,0a.982.982,0,1,1,0,1.957C299.925,272.71,299.31,272.7,298.7,272.7Z" transform="translate(968.576 1232.594)" fill="#0e2854"/><path d="M340.533,272.694c-.613,0-1.228.013-1.842,0a.979.979,0,1,1,0-1.953q1.9-.025,3.807,0a.979.979,0,1,1,0,1.953C341.844,272.707,341.188,272.694,340.533,272.694Z" transform="translate(933.529 1232.599)" fill="#0e2854"/><path d="M256.779,306.678c.613,0,1.228-.011,1.842,0a.982.982,0,0,1,1.053.964.97.97,0,0,1-1.027.989c-1.268.018-2.537.016-3.807,0a.976.976,0,0,1-1.051-.964,1,1,0,0,1,1.087-.994h1.9Z" transform="translate(1003.635 1202.546)" fill="#0e2854"/><path d="M298.622,308.638c-.613,0-1.228.011-1.842,0a.982.982,0,1,1,.016-1.955q1.872-.02,3.744,0a.979.979,0,0,1,1.061.955.99.99,0,0,1-1.079,1C299.889,308.65,299.255,308.638,298.622,308.638Z" transform="translate(968.583 1202.549)" fill="#0e2854"/><path d="M340.6,308.634c-.635,0-1.269.013-1.9,0a.979.979,0,1,1,0-1.953q1.9-.025,3.807,0a.979.979,0,1,1,0,1.953C341.872,308.647,341.237,308.634,340.6,308.634Z" transform="translate(933.52 1202.553)" fill="#0e2854"/><path d="M256.7,344.578c-.613,0-1.228.011-1.842,0a.982.982,0,1,1-.011-1.955q1.872-.02,3.744,0a.982.982,0,1,1,.012,1.955C257.965,344.59,257.331,344.578,256.7,344.578Z" transform="translate(1003.645 1172.504)" fill="#0e2854"/><path d="M298.627,344.57c-.613,0-1.228.011-1.842,0a.982.982,0,1,1,0-1.957q1.872-.02,3.744,0a.981.981,0,0,1,1.068.948,1,1,0,0,1-1.073,1.01c-.02,0-.041,0-.061,0Q299.547,344.571,298.627,344.57Z" transform="translate(968.584 1172.512)" fill="#0e2854"/><path d="M340.646,342.618c.594,0,1.187-.008,1.781,0a.986.986,0,1,1,.031,1.958q-1.872.02-3.744,0a.982.982,0,1,1,.03-1.955C339.376,342.607,340.011,342.618,340.646,342.618Z" transform="translate(933.521 1172.5)" fill="#0e2854"/></g></svg>