<svg xmlns="http://www.w3.org/2000/svg" width="61.786" height="58.946" viewBox="0 0 61.786 58.946"><g transform="translate(-26.13 -20.179)"><g transform="translate(26.13 48.908)"><path d="M59.378,224.784h.665c2.273,0,4.547.019,6.82-.006a4.757,4.757,0,0,1,4.217,2.015.709.709,0,0,0,.159.119q3.721-4.289,7.437-8.57a13.217,13.217,0,0,1,3.172-3.02,9.339,9.339,0,0,1,4.78-1.252c1.147,0,1.566.642,1.1,1.7-2.365,5.389-4.747,10.77-7.1,16.164a13.44,13.44,0,0,1-5.953,6.657,8.654,8.654,0,0,1-1.864.833,84.708,84.708,0,0,0-9.255,3.429,18.667,18.667,0,0,1-5.645,1.4,16.632,16.632,0,0,1-7.806-1.428c-3.669-1.585-7.327-3.2-11.031-4.7a33.6,33.6,0,0,0-9.25-2.122c-.859-.089-1.72-.181-2.581-.25a1.441,1.441,0,0,1-1.116-.713v-10.5a17.426,17.426,0,0,1,6.5-5.14,13.53,13.53,0,0,1,9.486-.5,40.379,40.379,0,0,1,8.183,3.335,39.913,39.913,0,0,0,4.045,1.985,17.9,17.9,0,0,0,2.974.645m-29.133,8.945c.538.055,1,.1,1.458.15a36.7,36.7,0,0,1,10.2,2.306c3.759,1.526,7.472,3.162,11.2,4.765a14.3,14.3,0,0,0,7.536,1.144,22.292,22.292,0,0,0,5.284-1.617c2.283-.883,4.533-1.9,6.878-2.563a11.677,11.677,0,0,0,7.992-6.749q3.2-7.25,6.383-14.507c.068-.154.117-.317.2-.553a6.541,6.541,0,0,0-4,2.183c-2.711,3.109-5.4,6.235-8.1,9.351-.7.81-1.565,1.532-1.482,2.763,0,.018-.015.037-.021.056a4.6,4.6,0,0,1-4.693,3.414c-4.205.007-8.412-.024-12.617.019a32.335,32.335,0,0,0-3.713.354,16.941,16.941,0,0,0-1.787.418l-.677-1.922c1.086-.239,2.073-.538,3.08-.656a36.254,36.254,0,0,1,3.971-.23c3.944-.028,7.887-.006,11.831-.012a2.591,2.591,0,0,0,2.58-1.622,2.535,2.535,0,0,0-2.368-3.47c-3.058-.034-6.116,0-9.175-.021a18.246,18.246,0,0,1-2.346-.156,13.218,13.218,0,0,1-5.064-1.834,36.061,36.061,0,0,0-8.566-3.808,12.544,12.544,0,0,0-6.829-.394,14.2,14.2,0,0,0-6.768,4.2,1.6,1.6,0,0,0-.4.993c-.033,2.454-.018,4.909-.016,7.364C28.156,233.373,28.173,233.57,28.185,233.808Z" transform="translate(-26.13 -214.07)" fill="#0e2854"/></g><path d="M156.642,34.75c-.009-.634-.412-.96-1.067-1a19.72,19.72,0,0,0-6.751.627,8.209,8.209,0,0,0-5.544,4.464,10.64,10.64,0,0,0-.129,7.94c.046.144.129.322.084.44-.175.455-.4.892-.6,1.335a3.4,3.4,0,0,1-.2-.973,34.61,34.61,0,0,0-3.654-13.52,1.021,1.021,0,0,1-.028-.71c.215-.71.535-1.39.717-2.105,1.089-4.254-.243-7.308-4.158-9.234-3.39-1.668-7.063-1.917-10.77-1.821a.953.953,0,0,0-.96,1.036,21.8,21.8,0,0,0,.759,7.463c1.264,4.026,4.017,6.617,8.58,6.749a40.488,40.488,0,0,0,4.192-.307c3.756,7.718,3.876,16,3.189,24.562l2.061-.079a30.25,30.25,0,0,1,2.8-11.664c.313.1.578.181.842.268,3.792,1.251,6.939.033,8.783-3.506C156.418,41.6,156.69,38.194,156.642,34.75Zm-19.3-3.473c-.821-.714-1.682-1.566-2.646-2.276a40.4,40.4,0,0,0-3.438-2.2,1.01,1.01,0,1,0-.862,1.794,13.7,13.7,0,0,1,5.15,4.171c.084.11.163.224.3.415-.37.071-.67.153-.975.185-2.394.258-4.664.031-6.531-1.719a7.627,7.627,0,0,1-1.965-3.2,18.451,18.451,0,0,1-.813-6.281c3.452.086,6.785.373,9.773,2.162C137.968,25.9,138.411,28.755,137.339,31.277Zm17.173,6.859a16.557,16.557,0,0,1-1.325,5.294c-1.387,3.006-3.858,3.98-7.022,2.7a16.748,16.748,0,0,1,4.389-4.989c.1-.071.2-.136.292-.213a1,1,0,0,0,.252-1.387.926.926,0,0,0-1.379-.236,31.772,31.772,0,0,0-2.938,2.575,34.124,34.124,0,0,0-2.151,2.683c-.384-2.82-.064-5.333,2.363-7.124a9.449,9.449,0,0,1,4.746-1.593c.935-.1,1.879-.113,2.932-.17C154.615,36.552,154.594,37.348,154.512,38.136Z" transform="translate(-82.988 0)" fill="#2b99bc"/></g></svg>