<svg xmlns="http://www.w3.org/2000/svg" width="86.284" height="58.946" viewBox="0 0 86.284 58.946"><g transform="translate(-50.757 -109.088)"><path d="M60.836,202.13a38.331,38.331,0,0,1-4.147-.23,7.013,7.013,0,0,1-5.9-6.9q-.054-9.475,0-18.948a7.09,7.09,0,0,1,7.066-7.034q16.618-.05,33.233,0a7.1,7.1,0,0,1,7.111,7.082q.065,9.428,0,18.859a7.126,7.126,0,0,1-7.193,7.1c-5.179.031-10.358.007-15.538.01H74.357q-5.2,5.206-10.4,10.416c-.19.19-.379.384-.574.569a1.427,1.427,0,0,1-1.634.4,1.459,1.459,0,0,1-.914-1.5q.007-4.4,0-8.8C60.836,202.812,60.836,202.488,60.836,202.13Zm2.875,6.478c.386-.37.624-.586.852-.814,2.542-2.539,5.1-5.062,7.61-7.634a3.012,3.012,0,0,1,2.364-1c5.45.041,10.9.029,16.349.014a4.271,4.271,0,0,0,4.447-4.4q.025-9.252,0-18.5a4.27,4.27,0,0,0-4.445-4.4q-16.395-.014-32.787,0a4.274,4.274,0,0,0-4.445,4.4q-.022,9.252,0,18.5a4.286,4.286,0,0,0,4.358,4.4c1.286.019,2.575,0,3.862,0,1.346.007,1.831.492,1.834,1.848C63.713,203.481,63.711,205.932,63.711,208.608Z" transform="translate(0 -45.523)" fill="#0e2854"/><path d="M249.9,142.156v7.538a14.316,14.316,0,0,1-.043,2.508,1.948,1.948,0,0,1-.89,1.279,2.2,2.2,0,0,1-1.469-.238c-.307-.122-.523-.478-.778-.732L236.36,142.156H225.027c-.269,0-.54.007-.809,0-.991-.029-1.615-.578-1.625-1.423a1.442,1.442,0,0,1,1.6-1.445c1.169-.019,2.335,0,3.5,0,2.935,0,5.87.017,8.806-.012a2.369,2.369,0,0,1,1.829.761c2.611,2.64,5.244,5.258,7.872,7.882.223.223.458.43.828.773v-4.99c0-.9-.007-1.8,0-2.7.014-1.186.521-1.706,1.69-1.718,1.318-.014,2.635.007,3.953-.007a4.289,4.289,0,0,0,4.414-4.438q.022-9.209,0-18.415a4.278,4.278,0,0,0-4.488-4.45q-16.351-.011-32.7,0a4.3,4.3,0,0,0-4.493,4.45c-.012,1.318.01,2.635-.007,3.953a1.469,1.469,0,0,1-1.4,1.649c-.869.024-1.459-.629-1.471-1.663-.014-1.318-.012-2.635,0-3.953a7.172,7.172,0,0,1,7.358-7.308q14.195-.022,28.39,0c1.5,0,3-.014,4.493,0a7.155,7.155,0,0,1,7.188,7.2q.047,9.342,0,18.684a7.159,7.159,0,0,1-7.135,7.166C251.893,142.171,250.966,142.156,249.9,142.156Z" transform="translate(-122.937)" fill="#0e2854"/><path d="M263.552,147.917H250.614a5.284,5.284,0,0,1-.9-.031,1.405,1.405,0,0,1-1.19-1.464,1.379,1.379,0,0,1,1.217-1.351,4.837,4.837,0,0,1,.9-.026h25.966a5.01,5.01,0,0,1,.806.017,1.388,1.388,0,0,1,1.279,1.387,1.41,1.41,0,0,1-1.306,1.454,6.978,6.978,0,0,1-.809.014Z" transform="translate(-150.303 -27.321)" fill="#0e2854"/><path d="M274.189,171.877H262.6a4.511,4.511,0,0,1-.806-.022,1.425,1.425,0,0,1,0-2.827,5.077,5.077,0,0,1,.9-.024h23a5.324,5.324,0,0,1,.9.022,1.425,1.425,0,0,1,0,2.827,4.3,4.3,0,0,1-.806.022Q279.982,171.878,274.189,171.877Z" transform="translate(-159.442 -45.53)" fill="#2b99bc"/><path d="M274.189,195.827H262.6a4.513,4.513,0,0,1-.806-.022,1.425,1.425,0,0,1,0-2.827,5.077,5.077,0,0,1,.9-.024h23a5.326,5.326,0,0,1,.9.022,1.427,1.427,0,0,1,0,2.83,4.3,4.3,0,0,1-.806.022Q279.982,195.83,274.189,195.827Z" transform="translate(-159.442 -63.731)" fill="#2b99bc"/><path d="M137.454,200.694c.288-1.217.725-1.7,1.531-1.7s1.265.5,1.536,1.7a4.376,4.376,0,0,1,2.714,3.3c.226,1.123-.19,1.946-1.075,2.143s-1.514-.365-1.742-1.555a1.434,1.434,0,1,0-1.375,1.589,4.323,4.323,0,0,1,1.493,8.352c-.3,1.217-.737,1.7-1.531,1.7s-1.267-.494-1.541-1.694a4.4,4.4,0,0,1-2.719-3.3c-.233-1.162.235-2.018,1.162-2.165.866-.137,1.44.4,1.661,1.565a1.433,1.433,0,1,0,1.38-1.582c-3.022-.259-4.9-2.815-4.07-5.563A4.345,4.345,0,0,1,137.454,200.694Z" transform="translate(-63.781 -68.325)" fill="#2b99bc"/></g></svg>