<svg xmlns="http://www.w3.org/2000/svg" width="58.505" height="58.945" viewBox="0 0 58.505 58.945"><g transform="translate(-22.878 -9.736)"><g transform="translate(22.878 9.736)"><path d="M68.361,26.071H54.684c0,.88,0,1.737,0,2.6a4.986,4.986,0,0,1-.023.69.721.721,0,0,1-.779.691,1.443,1.443,0,0,1-.828-.558c-.138-.179-.1-.514-.1-.78-.009-1.056-.006-2.112,0-3.168,0-.955.276-1.229,1.236-1.229q9.445,0,18.888,0a1.483,1.483,0,0,0,.73-.075.916.916,0,0,0,.414-.638c0-.179-.281-.41-.489-.518a1.451,1.451,0,0,0-.623-.038H54.391c-1.222,0-1.44-.221-1.441-1.448V18.964H51.308v2.6c0,1.271-.2,1.477-1.467,1.477H31.3c-.115,0-.231,0-.346,0-.678.007-.978.2-.943.642.048.617.519.627.975.627H49.871c1.236,0,1.435.2,1.435,1.434V58.31h1.642v-.733q0-11.864,0-23.726a2.941,2.941,0,0,1,.063-.74.842.842,0,0,1,1.649.13,5.786,5.786,0,0,1,.017.69q0,11.834,0,23.668v.752h.674c1.747,0,3.494-.006,5.241,0A2.858,2.858,0,0,1,63.734,61.5c0,.362,0,.724,0,1.163.449,0,.845-.007,1.242,0a2.79,2.79,0,0,1,2.918,2.946c.009.594-.019,1.192.007,1.784a1.315,1.315,0,0,1-.571,1.287H36.924a1.318,1.318,0,0,1-.571-1.287c.026-.613,0-1.229.009-1.842a2.779,2.779,0,0,1,2.859-2.886c.4-.012.8,0,1.3,0,0-.434,0-.828,0-1.222a2.843,2.843,0,0,1,3.081-3.09c1.766-.012,3.533,0,5.3,0h.642V26.08H35.875c.063.173.108.327.175.473q3.942,8.692,7.9,17.375a.929.929,0,0,0,.55.444,1.146,1.146,0,0,1,.883,1.618,34.334,34.334,0,0,1-1.777,3.414,3.255,3.255,0,0,1-3.013,1.464c-3.686-.014-7.371,0-11.057-.006-.71,0-1.421.01-2.131-.013a3.17,3.17,0,0,1-2.814-1.706c-.56-1-1.078-2.032-1.574-3.07a1.155,1.155,0,0,1,.878-1.7.782.782,0,0,0,.485-.361q4.027-8.811,8.025-17.636c.038-.084.055-.176.105-.338-.638,0-1.228.022-1.815,0a2.369,2.369,0,0,1-2.159-3.484,2.223,2.223,0,0,1,1.833-1.22c.286-.026.574-.03.863-.03h18.34c0-1.021.02-1.959-.017-2.894-.007-.179-.219-.375-.378-.518a4.445,4.445,0,0,1-1.492-4.723A4.369,4.369,0,0,1,51.431,9.8a4.589,4.589,0,0,1,3.655,8.062.978.978,0,0,0-.414.867c.027.824.009,1.649.009,2.573h.754q8.839,0,17.679,0a4.86,4.86,0,0,1,1.142.092,2.347,2.347,0,0,1-.16,4.57,7.97,7.97,0,0,1-1.145.075c-.382.012-.765,0-1.232,0M42.241,44.359C39.556,38.442,36.9,32.59,34.191,26.624c-2.7,5.958-5.366,11.818-8.052,17.736ZM38.1,66.921H66.167v-.935c0-1.3-.29-1.585-1.594-1.585q-7.66,0-15.318,0a3.25,3.25,0,0,1-.74-.066.77.77,0,0,1-.635-.841.793.793,0,0,1,.753-.8,5.119,5.119,0,0,1,.632-.022H62v-.85c0-1.484-.248-1.73-1.753-1.73-5.259,0-10.519.027-15.778-.013-2.211-.017-2.263.361-2.2,2.382a.835.835,0,0,0,.089.212c.726,0,1.471-.01,2.214,0,.6.012.966.333.985.822.019.515-.355.861-.979.9-.153.01-.307,0-.46,0-1.593,0-3.186-.006-4.779,0-.757,0-1.164.326-1.228,1.008C38.067,65.9,38.1,66.4,38.1,66.921Zm5.3-20.792H24.994c.306.607.612,1.154.863,1.727a2,2,0,0,0,2.08,1.29c2.876-.035,5.753-.012,8.628-.012,1.38,0,2.761,0,4.141,0a1.622,1.622,0,0,0,1.548-.808C42.646,47.629,43,46.911,43.4,46.129Zm8.756-28.918A2.881,2.881,0,1,0,49.25,14.4,2.91,2.91,0,0,0,52.158,17.211Z" transform="translate(-22.878 -9.736)" fill="#0e2854"/></g><path d="M293.386,141.2c-.454-.062-.59-.3-.746-.643q-3.88-8.562-7.772-17.118c-.084-.185-.156-.374-.261-.625l-3.36.025a1.155,1.155,0,0,1-.051.242q-4.022,8.878-8.061,17.746a.718.718,0,0,1-.462.316,1.148,1.148,0,0,0-.886,1.695c.511,1.072,1.039,2.141,1.63,3.169a3.137,3.137,0,0,0,2.695,1.613c.153.009.306.013.46.013,4.261,0,8.522-.009,12.783.006a3.251,3.251,0,0,0,3.015-1.46,36,36,0,0,0,1.794-3.469A1.065,1.065,0,0,0,293.386,141.2Zm-10.432-17.809c2.709,5.963,5.357,11.8,8.039,17.7H274.92C277.587,135.214,280.243,129.36,282.953,123.387Zm7.95,21.819a2.06,2.06,0,0,1-1.2.651,8.745,8.745,0,0,1-1.719.039c-3.758,0-7.517-.017-11.275.013a2.015,2.015,0,0,1-2.087-1.281c-.252-.571-.557-1.121-.861-1.727h18.412A19.938,19.938,0,0,1,290.9,145.206Z" transform="translate(-212.886 -96.763)" fill="#2b99bc"/><g transform="translate(22.882 26.047)"><path d="M47.785,122.81H32.538a2.971,2.971,0,0,1-.1.332q-4.005,8.822-8.025,17.636a.779.779,0,0,1-.483.361,1.155,1.155,0,0,0-.878,1.7c.5,1.037,1.014,2.066,1.574,3.07a3.172,3.172,0,0,0,2.814,1.706c.71.025,1.421.013,2.131.013,3.686,0,7.371-.009,11.057.006a3.251,3.251,0,0,0,3.013-1.463,34.656,34.656,0,0,0,1.777-3.414,1.147,1.147,0,0,0-.883-1.62.927.927,0,0,1-.55-.443q-3.968-8.681-7.9-17.376c-.066-.146-.111-.3-.173-.473H47.785Zm-5.5,22.279a1.622,1.622,0,0,1-1.548.808c-1.38,0-2.761,0-4.141,0-2.876,0-5.753-.023-8.629.012a2.006,2.006,0,0,1-2.08-1.29c-.25-.573-.557-1.119-.863-1.727H43.429C43.022,143.674,42.672,144.393,42.281,145.089Zm-.014-3.967h-16.1c2.687-5.917,5.347-11.778,8.052-17.736C36.925,129.353,39.58,135.205,42.266,141.122ZM31.044,122.81c.248,0,.5,0,.753,0Z" transform="translate(-22.908 -122.81)" fill="#2b99bc"/></g></g></svg>