<svg xmlns="http://www.w3.org/2000/svg" width="61.47" height="58.946" viewBox="0 0 61.47 58.946"><g transform="translate(-34.07 -41.93)"><path d="M34.07,233.309c.528-1.076,1.541-.858,2.516-.876.013-.269.034-.5.034-.731q0-5.822,0-11.646c0-2.006.977-2.985,2.977-2.986q4.773,0,9.545,0a2.559,2.559,0,0,1,2.845,2.858q0,5.853,0,11.705v.755h5.132v-.706c0-9,.024-18.008-.022-27.011a2.786,2.786,0,0,1,3.007-2.991c3.1.082,6.2.09,9.3,0a2.821,2.821,0,0,1,3.105,3.079c-.053,8.964-.024,17.928-.024,26.891v.749h5.132v-.788c0-7.262.035-14.526-.022-21.789a2.79,2.79,0,0,1,3.031-3.033c3.14.063,6.282.016,9.424.019a2.631,2.631,0,0,1,2.935,2.927q0,10.925,0,21.85v.858c.444,0,.839-.013,1.232,0a1.27,1.27,0,0,1,1.315,1.267,1.3,1.3,0,0,1-1.318,1.277c-.12.006-.241,0-.361,0q-29.053,0-58.105.01a1.6,1.6,0,0,1-1.682-.97C34.07,233.789,34.07,233.55,34.07,233.309Zm25.636-.962H69.9V204.286H59.706Zm20.5-22.924v22.919H90.372V209.423ZM49.4,219.657H39.254v12.711H49.4Z" transform="translate(0 -134.126)" fill="#0e2854"/><path d="M112.692,44.528c-2.375,0-4.593,0-6.813,0-.959,0-1.519-.447-1.557-1.213a1.275,1.275,0,0,1,1.4-1.362c1.02-.019,2.04,0,3.06,0q3.45-.007,6.9-.018a1.336,1.336,0,0,1,1.437,1.411q-.01,4.891-.026,9.78c0,.14,0,.281-.01.42a1.266,1.266,0,0,1-2.531-.014c-.03-.94-.011-1.88-.011-2.82V46.365c-.228.213-.38.346-.523.489q-6.176,6.173-12.339,12.356a1.851,1.851,0,0,1-1.99.532c-6.249-1.589-12.509-3.139-18.76-4.712a.906.906,0,0,0-.991.279q-5.793,5.832-11.63,11.623a1.812,1.812,0,0,1-1.11.59,1.76,1.76,0,0,1-1.124-.621,1.067,1.067,0,0,1,.047-1.341,3.739,3.739,0,0,1,.446-.484q6.108-6.111,12.212-12.23a1.764,1.764,0,0,1,1.883-.515c6.234,1.578,12.478,3.121,18.712,4.7a1.079,1.079,0,0,0,1.195-.33q5.767-5.815,11.574-11.594C112.3,44.953,112.44,44.794,112.692,44.528Z" transform="translate(-26.692 0)" fill="#2b99bc"/></g></svg>