<svg xmlns="http://www.w3.org/2000/svg" width="63.938" height="58.945" viewBox="0 0 63.938 58.945"><g transform="translate(-41.254 -40.55)"><path d="M105.191,58.41V94.124a.519.519,0,0,0-.1.153,6.22,6.22,0,0,1-6.488,5.217q-25.441,0-50.884,0a6.235,6.235,0,0,1-6.466-6.448q-.01-16.763,0-33.528a6.241,6.241,0,0,1,6.5-6.474q3.779-.008,7.555,0h.679c0-2.074-.005-4.049,0-6.026a6.237,6.237,0,0,1,6.453-6.459q10.77-.01,21.54,0A6.238,6.238,0,0,1,90.459,47c.007,1.79,0,3.58,0,5.37v.676c2.909,0,5.719-.043,8.526.012a6.055,6.055,0,0,1,5.665,3.717A13.352,13.352,0,0,1,105.191,58.41ZM43.754,71.6v.711q0,10.3,0,20.6A3.771,3.771,0,0,0,47.834,97q25.376,0,50.754,0a3.777,3.777,0,0,0,4.1-4.122q0-10.27,0-20.539v-.706c-.259.067-.437.108-.614.162q-14.046,4.252-28.095,8.488a2.652,2.652,0,0,1-1.443.018Q61.8,77.084,51.067,73.811C48.665,73.082,46.261,72.358,43.754,71.6Zm.012-2.619c.247.077.445.14.644.2q14.133,4.284,28.272,8.553a2.312,2.312,0,0,0,1.255-.043q11.458-3.441,22.907-6.923c1.943-.589,3.887-1.179,5.852-1.777v-.661q0-4.339,0-8.678a3.773,3.773,0,0,0-4.107-4.117q-9.021,0-18.042,0c-.541,0-1.083,0-1.623,0a1.227,1.227,0,0,1-1.194-.749,1.245,1.245,0,0,1,1.286-1.743c2.748-.01,5.493,0,8.241,0h.659V48.576H58.529V53.04h.9c2.684,0,5.368-.007,8.054,0a1.261,1.261,0,0,1,1.335,1.588,1.306,1.306,0,0,1-1.4.9q-4.151.005-8.3,0c-3.85,0-7.7-.008-11.549,0a3.643,3.643,0,0,0-3.775,3.413C43.709,62.28,43.765,65.61,43.765,68.983Zm44.08-22.957a3.075,3.075,0,0,0-.062-.352,3.747,3.747,0,0,0-3.692-2.622q-10.853-.008-21.707,0c-.145,0-.292,0-.437.01a3.577,3.577,0,0,0-3.3,2.966Z" transform="translate(0)" fill="#0e2854"/><path d="M196.7,176.3q-2.838,0-5.674,0c-1.113,0-1.546-.437-1.55-1.551q0-2.713,0-5.425c0-1.063.455-1.513,1.523-1.513q5.738,0,11.474,0c1.026,0,1.483.46,1.486,1.486q.008,2.775,0,5.55a1.28,1.28,0,0,1-1.46,1.451C200.566,176.3,198.633,176.3,196.7,176.3ZM192,173.76h9.412v-3.425H192C192,171.479,192,172.6,192,173.76Z" transform="translate(-123.495 -106.026)" fill="#2b99bc"/><path d="M226.724,115.448a1.245,1.245,0,0,1,.05,2.489,1.245,1.245,0,1,1-.05-2.489Z" transform="translate(-153.51 -62.403)" fill="#2b99bc"/></g></svg>