<svg xmlns="http://www.w3.org/2000/svg" width="25.754" height="27.743" viewBox="0 0 25.754 27.743"><g transform="translate(-3.503 -2.375)"><path d="M14.866,7.725c.006,0,.006-.006,0,0L11.388,4.241a2.973,2.973,0,0,0-4.2,0h0a2.977,2.977,0,0,0,0,4.2l3.051,3.051-5.229,5.2a1.733,1.733,0,0,0,.019,2.475l8.119,7.8a1.736,1.736,0,0,0,2.407-.006c2.339-2.265,7.321-7.086,7.841-7.605a2.73,2.73,0,0,1,1.776-.439h.019a.4.4,0,0,0,.285-.693Zm-6.43-.489a1.259,1.259,0,0,1-.124-1.658,1.246,1.246,0,0,1,1.85-.111l3.051,3.051-1.751,1.751Z" fill="none" stroke="#0a53a4" stroke-width="2"/><path d="M27.905,23.859a.246.246,0,0,0-.377,0c-.65.755-2.785,3.336-2.785,4.728a2.972,2.972,0,0,0,2.97,2.977h0a2.976,2.976,0,0,0,2.97-2.977C30.69,27.188,28.561,24.614,27.905,23.859Z" transform="translate(-2.426 -2.445)" fill="none" stroke="#0a53a4" stroke-width="2"/></g></svg>