<svg xmlns="http://www.w3.org/2000/svg" xmlns:xlink="http://www.w3.org/1999/xlink" width="269.547" height="200.34" viewBox="0 0 269.547 200.34"><defs><linearGradient id="a" x1="0.5" y1="1" x2="0.5" gradientUnits="objectBoundingBox"><stop offset="0" stop-color="gray" stop-opacity="0.251"/><stop offset="0.54" stop-color="gray" stop-opacity="0.122"/><stop offset="1" stop-color="gray" stop-opacity="0.102"/></linearGradient></defs><g transform="translate(0.004 -0.05)"><path d="M251.835,119.313c-17.28-.446-33.738-4.59-49.454-9.123s-31.282-9.567-48.148-11.97c-10.848-1.546-23.256-1.765-31.994,2.558-8.413,4.155-11.131,11.326-12.592,18-1.1,5.012-1.746,10.285,1.266,14.976,2.093,3.257,5.8,5.994,8.373,9.115,8.936,10.856,2.619,24.241-7.062,34.841-4.539,4.972-9.812,9.713-13.318,15.008s-5.126,11.355-2.059,16.757c3.038,5.34,10.282,9.369,18.129,12.2,15.937,5.743,34.71,7.385,53.029,8.317,40.538,2.061,81.29,1.167,121.936.267,15.043-.331,30.15-.665,44.947-2.4,8.218-.959,16.7-2.483,22.668-6.16,7.572-4.667,9.449-12.57,4.373-18.423-8.512-9.818-32.04-12.258-38-22.794-3.273-5.8.088-12.258,4.849-17.638C338.992,151.3,356.1,141.18,357,127.99c.619-9.057-7.607-18.129-20.327-22.415-13.331-4.491-31.821-3.928-41.652,3.508C284.892,116.75,267.094,119.7,251.835,119.313Z" transform="translate(-95.23 -91.188)" fill="#0f0a3c" opacity="0.1"/><g transform="translate(193.59 0.05)" opacity="0.8"><path d="M877.358,122.571s-3.012-1.223-12.592,3.172-10.776,3.837-13.257,3.164-3.863-.83-6.523-4.5c0,0-1.869-10.165-3.69-11.748s-9.526.9-9.526.9-9.244,2.125-11.016-10.234c0,0,1.25-9.313-.454-12.172,0,0,3.439,1.482,9.11-.91s10.21,2.579,10.21,2.579,1.431,3.7,1.282,5.909.756,3.038,3.471,1.97c0,0,1.335-1.89-.553-5.014s-3.225-5.452-2.7-7.879a9.792,9.792,0,0,1,6.886-7.476c4.851-1.687,11.444-2,14.608-3.305s3.927-2.176,3.927-2.176S864.6,76.8,869.182,85.068s1.663,11.857,1.663,11.857-2.44,5.815-13.211,5.34c0,0-10.378.379-4.721,4.779,0,0,3.623-.737,9.043-2.459s9.326,5.385,10.3,10.33A12.968,12.968,0,0,0,877.358,122.571Z" transform="translate(-820.3 -74.85)" fill="#0f0a3c"/><path d="M959.316,98.246l.056-.016c.417,1.578-4.221,7.917-8.186,12.957l-.045-.035C956.731,104.043,959.647,99.458,959.316,98.246Z" transform="translate(-916.206 -91.988)" fill="#444053"/><path d="M920.412,146.24l.024.064c-3.167,4.026-7.15,8.832-10.338,12.391-.3.339-.606.694-.894,1.068l-.094-.072c.294-.366.6-.724.9-1.068C913.2,155.059,917.248,150.264,920.412,146.24Z" transform="translate(-885.398 -127.179)" fill="#444053"/><path d="M889.2,196.22l.064.107c-5.8,7.244-6.186,18.49-6.2,18.588l-1.223-1.4C881.853,213.4,883.357,203.512,889.2,196.22Z" transform="translate(-865.409 -163.814)" fill="#444053"/><path d="M884.867,173.728s-6.841-3.556-12.172-2.28-17.334-4.512-17.334-4.512-5.1-2.069-6.122-4.43c0,0-3.495-3.7-3.7-5.607s-3.612-6.726-5.823-6.9" transform="translate(-834.535 -129.935)" fill="none" stroke="#444053" stroke-miterlimit="10" stroke-width="1"/><path d="M996.655,237.888s-3.444-2.32-3.044-5.028" transform="translate(-947.313 -190.672)" fill="none" stroke="#444053" stroke-miterlimit="10" stroke-width="1"/><path d="M970.423,238.731s-4.929-1.789-5.423-8.811" transform="translate(-926.365 -188.516)" fill="none" stroke="#444053" stroke-miterlimit="10" stroke-width="1"/><path d="M946.021,240.253a11.023,11.023,0,0,1-3.145-10.733" transform="translate(-909.915 -188.223)" fill="none" stroke="#444053" stroke-miterlimit="10" stroke-width="1"/><path d="M915.619,232.774s-3.135-6.576-.344-10.854" transform="translate(-889.069 -182.653)" fill="none" stroke="#444053" stroke-miterlimit="10" stroke-width="1"/><path d="M1001.132,222.63s-3.564,1.132-2.8,3.006" transform="translate(-950.72 -183.173)" fill="none" stroke="#444053" stroke-miterlimit="10" stroke-width="1"/><path d="M979.6,198.41s-4.769,1.511-4.881,8.258" transform="translate(-933.49 -165.42)" fill="none" stroke="#444053" stroke-miterlimit="10" stroke-width="1"/><path d="M956.989,192.58s-4.339,5.356-4.032,10.223" transform="translate(-917.527 -161.146)" fill="none" stroke="#444053" stroke-miterlimit="10" stroke-width="1"/><path d="M929.179,200.45s-4.312,4.12-3.762,6.408" transform="translate(-897.315 -166.915)" fill="none" stroke="#444053" stroke-miterlimit="10" stroke-width="1"/><path d="M917.256,193.343s-4.042.724-4.606-.6" transform="translate(-887.993 -161.264)" fill="none" stroke="#444053" stroke-miterlimit="10" stroke-width="1"/><path d="M910.23,176.72s2.043,2.7,2.569,2.1" transform="translate(-886.219 -149.521)" fill="none" stroke="#444053" stroke-miterlimit="10" stroke-width="1"/><path d="M951.753,163.911s-10.189.74-12.493-2.331" transform="translate(-907.498 -138.423)" fill="none" stroke="#444053" stroke-miterlimit="10" stroke-width="1"/><path d="M902.2,125.68s4.782,10.261,8.253,11.569" transform="translate(-880.333 -112.108)" fill="none" stroke="#444053" stroke-miterlimit="10" stroke-width="1"/><path d="M921,107.37s2.937,9.438,6.573,12.386" transform="translate(-894.113 -98.687)" fill="none" stroke="#444053" stroke-miterlimit="10" stroke-width="1"/><path d="M968.069,141.03s-7.743,3.324-12.4-.04" transform="translate(-919.526 -123.331)" fill="none" stroke="#444053" stroke-miterlimit="10" stroke-width="0.75"/><path d="M946.84,99.83s1.77,6.942,4.154,8.616" transform="translate(-913.054 -93.16)" fill="none" stroke="#444053" stroke-miterlimit="10" stroke-width="0.75"/><path d="M981.311,112s-4.355,1.647-5.981.384" transform="translate(-933.937 -102.081)" fill="none" stroke="#444053" stroke-miterlimit="10" stroke-width="0.75"/><path d="M891.737,185.21s0,6.048-1.647,6.477" transform="translate(-871.456 -155.744)" fill="none" stroke="#444053" stroke-miterlimit="10" stroke-width="1"/><path d="M845.84,206.834s6.541.561,9.556-2.814" transform="translate(-839.021 -169.532)" fill="none" stroke="#444053" stroke-miterlimit="10" stroke-width="1"/><path d="M873.616,158.45s-1.581,6.141-5.946,7.786" transform="translate(-855.022 -136.129)" fill="none" stroke="#444053" stroke-miterlimit="10" stroke-width="1"/><path d="M831.15,183.528a8.582,8.582,0,0,0,8.611-2.488" transform="translate(-828.253 -152.687)" fill="none" stroke="#444053" stroke-miterlimit="10" stroke-width="1"/><path d="M861.691,138.7s-.438,5.209-3.271,7.647" transform="translate(-848.242 -121.652)" fill="none" stroke="#444053" stroke-miterlimit="10" stroke-width="1"/><path d="M831.81,157.266s3.842.024,4.742-1.226" transform="translate(-828.737 -134.362)" fill="none" stroke="#444053" stroke-miterlimit="10" stroke-width="1"/></g><ellipse cx="58.206" cy="4.138" rx="58.206" ry="4.138" transform="translate(11.977 192.113)" fill="#0f0a3c" opacity="0.1"/><path d="M277.508,354.235c.8-1.439,1.76-2.8,2.534-4.253.708-1.335,1.26-2.75,1.9-4.122,1.092-2.35,2.438-4.571,3.663-6.857a8.847,8.847,0,0,0,1.42-4.822c-.147-1.6-1.087-2.99-1.45-4.539-1.479-6.357-5.038-12.194-7.209-18.343-.555-1.559-1.095-3.129-1.789-4.635a49.087,49.087,0,0,0-5.073-8.082,22.828,22.828,0,0,0-2.243-2.787c-.67-.67-1.423-1.26-2.032-1.986-1.255-1.5-1.842-3.647-3.412-4.806-.027.069-.056.136-.085.206-1.124-2.87-4.894-4.763-7.081-7.142a42.039,42.039,0,0,1-3.506-4.606l-4.761-6.881a11.561,11.561,0,0,1-1.986-3.815c-.406-1.7-.029-3.519-.43-5.223a6.587,6.587,0,0,0-1.455-2.766c.045-.013.093-.032.142-.043.908-.243,1.869-.286,2.769-.5,1.962-.467,3.669-1.722,5.623-2.224a13.714,13.714,0,0,0,2.969-.8,2.467,2.467,0,0,0,1.148-2.622c-.633-3.351,1.135-6.747.836-10.146-.08-.94-.32-1.856-.475-2.787a29.551,29.551,0,0,1-.166-6.574,13.886,13.886,0,0,1,2.176-2.7c1.2-1.159,2.635-2.136,3.471-3.586a6.993,6.993,0,0,0,.721-4.3,4.153,4.153,0,0,0-1.335-2.841,3.356,3.356,0,0,0-3.065-.358c-.142.045-.28.1-.417.16a3.5,3.5,0,0,0-2.761-.16,8.366,8.366,0,0,0-2.7,1.7,6.175,6.175,0,0,0-1.26,1.335,7.916,7.916,0,0,0-.86,2.731,26.7,26.7,0,0,1-1.8,5.284c-.144.3-.534.836-.849,1.348l-.571-.117c-.248,2.379-2.24,4.125-3.452,6.181-.59,1-1,2.091-1.535,3.124a30.284,30.284,0,0,1-2.027,3.249q-1.081,1.6-2.165,3.175a45.119,45.119,0,0,1-2.937,3.973c-.98-.08-1.96-.152-2.937-.168a23.838,23.838,0,0,0-4.889.435,13.614,13.614,0,0,1-.174-1.711v-.1c0-.139.016-.3.035-.483a9.879,9.879,0,0,0-.473-16.714,7.181,7.181,0,0,0,.1-.908v-.534a1.26,1.26,0,0,0-.019-.267,3.531,3.531,0,0,0-.091-.534c-.021-.085-.045-.171-.075-.267a2.523,2.523,0,0,0-.222-.481.23.23,0,0,0-.019-.027c-.035-.056-.069-.112-.109-.166s-.035-.043-.051-.064a1.275,1.275,0,0,0-.091-.112l-.067-.069c-.029-.032-.059-.064-.091-.093l-.075-.067-.093-.083-.085-.064-.1-.072-.093-.061-.1-.061c-.032-.021-.067-.04-.1-.059l-.1-.056-.107-.053-.1-.048-.117-.051-.1-.043-.128-.048-.091-.035-.139-.048-.083-.027-.152-.048-.072-.021-.166-.045-.064-.019-.174-.043-.051-.013-.192-.043h-.032l-.283-.061q-1.754-.36-3.53-.622a7.952,7.952,0,0,0-2.918-.051,20.209,20.209,0,0,0-3.653,1.738,24.555,24.555,0,0,1-4.63,1.191,7.03,7.03,0,0,0-4.128,2.251,7.859,7.859,0,0,0-1.26,3.412c-1.848,10.05.144,20.359.521,30.574.147,3.976-.032,8.226-2.286,11.481l6.563-.174c.315,0,.633-.019.953-.037s.641-.043.956-.08A6.323,6.323,0,0,0,213,276.8a4.1,4.1,0,0,0,.926-.721,9.233,9.233,0,0,0,1.8-3.431c.147-.414.294-.833.425-1.255.053-.176.1-.352.15-.534l.021-.085.075.035a16.52,16.52,0,0,0,.889,1.469,31.814,31.814,0,0,0,4.04,4.563c2.865,2.844,5.794,5.738,9.385,7.564a11.277,11.277,0,0,1,3.447,2.136c.454.489.846,1.116,1.49,1.284a7.411,7.411,0,0,1,1.223.171c.561.235.766.91,1.025,1.466s.844,1.121,1.4.868a2.806,2.806,0,0,0,1.047,2.785,2.045,2.045,0,0,1,.678.609,2.213,2.213,0,0,1,.139.716,2.828,2.828,0,0,0,1.012,1.733c-.521.862-.1,2.1-.091,3.175a11.94,11.94,0,0,1-.5,2.651,19.52,19.52,0,0,0,.214,7.871,8.552,8.552,0,0,0,1.541,4.032c.3.36.667.673.988,1.023a9.505,9.505,0,0,1,1.509,2.3,18.021,18.021,0,0,1,1.637,5.244,9.548,9.548,0,0,0,.774,2.643c.585,1.276.051,2.846.574,4.149a12.04,12.04,0,0,1,.817,1.7,7.719,7.719,0,0,1-.392,2.683c-.3,2.12,1.226,4.088,1.364,6.224a.491.491,0,0,1-.075.36c-.1.117-.283.115-.425.182-.267.128-.339.489-.425.788s-.326.638-.622.547c-4.387,2.347-8.928,4.515-13.315,6.862l-2,1.068-10.709,5.722a.774.774,0,0,0-.43.7c0,.128.016.267.027.387-.75.187-1.471.411-1.984.5-.211.04-.422.08-.63.125a.673.673,0,0,0,.1-.267.534.534,0,0,0-.473-.534,1.712,1.712,0,0,0-.772.1,11.259,11.259,0,0,1-1.869.344,13.341,13.341,0,0,0-2.24.267,2.546,2.546,0,0,0-1.735,1.335,3.239,3.239,0,0,0-.192,1.26,19.29,19.29,0,0,0,.582,4.9.416.416,0,0,0,.195.312c.093.037.206,0,.3.043a.4.4,0,0,1,.174.219,10.979,10.979,0,0,1,.673,3.268q.267,2.47.676,4.926a5.468,5.468,0,0,0,.98,2.691,4.4,4.4,0,0,0,2.809,1.3,19.6,19.6,0,0,0,6.6-.606,1.934,1.934,0,0,0,1.113-.5,1.258,1.258,0,0,0,.267-.889c-.051-1.1-1.049-1.869-1.957-2.486L224,371.927a.534.534,0,0,1-.267-.6l.08-1.621h-.24a5.822,5.822,0,0,1,1.538-3.025c.579-.534,1.335-.908,1.941-1.394a4.806,4.806,0,0,0,2.7.991,22,22,0,0,1,6.114-5.073,59.809,59.809,0,0,1,5.674-3.167q2.366-1.169,4.806-2.192c2.3-.967,4.635-1.829,6.977-2.67a28.089,28.089,0,0,0,4.576-1.941c3.738-2.16,6.379-6.472,5.874-10.789-.635-5.447.724-11.123.633-16.607a16.459,16.459,0,0,0-.571-4.739,2.531,2.531,0,0,1,.318.267c.972.908,1.207,2.35,2.136,3.386.724.814,1.824,1.335,2.261,2.328.334.761.286,1.789.983,2.227.2.125.433.179.63.3a2.109,2.109,0,0,1,.585.633,7.1,7.1,0,0,1,1.586,3.471c.035.51-.013,1.1.36,1.444.107.1.243.171.3.3.117.267-.192.55-.246.846-.077.411.328.724.579,1.068a1.679,1.679,0,0,1,0,1.978c-2.189,2.844-2.585,6.675-4.5,9.716-.662,1.049-1.4,2.043-2.04,3.105-1.97,3.263-2.966,7.011-3.933,10.7a5.914,5.914,0,0,0,1.642,1.832,9.078,9.078,0,0,1-1.829,3.378,8.5,8.5,0,0,0-.6.756,1.468,1.468,0,0,0-.6-.449,21.153,21.153,0,0,0-.534,4.672,3.334,3.334,0,0,0,.983,2.817,3.485,3.485,0,0,0,1.092.451l1.832.534a1.914,1.914,0,0,0,1.012.1c.216-.061.409-.195.63-.238a1.546,1.546,0,0,1,.71.093l1.583.462a10.461,10.461,0,0,1,1.565.553c.451.216.868.5,1.311.737a15.84,15.84,0,0,0,2.288.94l2.729.94a9.929,9.929,0,0,0,2.366.614c.561.048,1.129,0,1.682.1.422.072.83.224,1.255.267a3.29,3.29,0,0,0,1.976-.587,1.765,1.765,0,0,0,.571-.515,2.04,2.04,0,0,0-.334-2.08,8.226,8.226,0,0,0-2.822-2.937c-.483-.267-1.007-.465-1.506-.71-1.42-.694-2.491-1.853-3.834-2.646a.91.91,0,0,0-1.151.077,7.771,7.771,0,0,1-2.937-2.609,5.875,5.875,0,0,1-.534-1.8c.627.15,1.26.267,1.9.371A48.84,48.84,0,0,1,277.508,354.235ZM251.857,240.363c-.053.3-.112.6-.176.9-.534,2.507-1.3,5.316-3.044,7.182a6.675,6.675,0,0,1-1.97,1.3l-.195.1A42.832,42.832,0,0,1,251.857,240.363Z" transform="translate(-173.606 -180.516)" fill="url(#a)"/><path d="M389.547,226.784a7.969,7.969,0,0,1,.862-2.713,6.2,6.2,0,0,1,1.263-1.335,8.421,8.421,0,0,1,2.707-1.693,3.382,3.382,0,0,1,3.068.355,4.083,4.083,0,0,1,1.348,2.822,6.948,6.948,0,0,1-.724,4.272c-.828,1.444-2.264,2.4-3.471,3.562a13.783,13.783,0,0,0-2.262,2.82,8.032,8.032,0,0,1-1.031,1.506,1.957,1.957,0,0,1-1.637.654,2.887,2.887,0,0,1-1.335-.782c-.494-.433-1.824-1.2-1.869-1.89-.032-.555,1.007-1.816,1.26-2.336a26.305,26.305,0,0,0,1.818-5.241Z" transform="translate(-308.71 -181.808)" fill="#fbbebe"/><path d="M389.547,226.784a7.969,7.969,0,0,1,.862-2.713,6.2,6.2,0,0,1,1.263-1.335,8.421,8.421,0,0,1,2.707-1.693,3.382,3.382,0,0,1,3.068.355,4.083,4.083,0,0,1,1.348,2.822,6.948,6.948,0,0,1-.724,4.272c-.828,1.444-2.264,2.4-3.471,3.562a13.783,13.783,0,0,0-2.262,2.82,8.032,8.032,0,0,1-1.031,1.506,1.957,1.957,0,0,1-1.637.654,2.887,2.887,0,0,1-1.335-.782c-.494-.433-1.824-1.2-1.869-1.89-.032-.555,1.007-1.816,1.26-2.336a26.305,26.305,0,0,0,1.818-5.241Z" transform="translate(-308.71 -181.808)" opacity="0.1"/><path d="M293,290.181a23.952,23.952,0,0,1,6.56-.8c3.693.053,7.495.948,11.011-.184a19.1,19.1,0,0,0,2.641-1.145,6.7,6.7,0,0,0,1.97-1.292c1.749-1.853,2.5-4.643,3.049-7.134a47.6,47.6,0,0,0,.83-7.593,5.794,5.794,0,0,0,2.878.758,2.087,2.087,0,0,0,2.01-1.869,30.553,30.553,0,0,0,.131,7.073c.155.924.4,1.834.478,2.769.3,3.375-1.471,6.747-.838,10.077a2.443,2.443,0,0,1-1.148,2.6,12.546,12.546,0,0,1-2.974.8c-1.957.5-3.666,1.744-5.631,2.208-.916.216-1.869.267-2.771.5-1.3.342-2.475,1.084-3.8,1.319-.991.176-2.01.056-3.012.141-.87.072-1.725.3-2.6.323a7.5,7.5,0,0,1-5.578-2.761A23.441,23.441,0,0,1,293,290.181Z" transform="translate(-240.199 -218.52)" fill="#0f0a3c"/><path d="M293,290.181a23.952,23.952,0,0,1,6.56-.8c3.693.053,7.495.948,11.011-.184a19.1,19.1,0,0,0,2.641-1.145,6.7,6.7,0,0,0,1.97-1.292c1.749-1.853,2.5-4.643,3.049-7.134a47.6,47.6,0,0,0,.83-7.593,5.794,5.794,0,0,0,2.878.758,2.087,2.087,0,0,0,2.01-1.869,30.553,30.553,0,0,0,.131,7.073c.155.924.4,1.834.478,2.769.3,3.375-1.471,6.747-.838,10.077a2.443,2.443,0,0,1-1.148,2.6,12.546,12.546,0,0,1-2.974.8c-1.957.5-3.666,1.744-5.631,2.208-.916.216-1.869.267-2.771.5-1.3.342-2.475,1.084-3.8,1.319-.991.176-2.01.056-3.012.141-.87.072-1.725.3-2.6.323a7.5,7.5,0,0,1-5.578-2.761A23.441,23.441,0,0,1,293,290.181Z" transform="translate(-240.199 -218.52)" opacity="0.1"/><path d="M589.709,342.889a18.38,18.38,0,1,1-18.38,18.379,18.38,18.38,0,0,1,18.38-18.379m0-4.539a22.919,22.919,0,1,0,22.919,22.918A22.919,22.919,0,0,0,589.709,338.35Z" transform="translate(-440.887 -267.946)" fill="#3f3d56"/><rect width="5.372" height="5.655" transform="translate(145.429 65.043)" fill="#3f3d56"/><rect width="5.372" height="5.655" transform="matrix(0.857, 0.515, -0.515, 0.857, 160.383, 67.337)" fill="#3f3d56"/><rect width="5.372" height="5.655" transform="matrix(0.485, 0.875, -0.875, 0.485, 171.826, 76.597)" fill="#3f3d56"/><rect width="5.372" height="5.655" transform="matrix(-0.53, 0.848, -0.848, -0.53, 174.602, 105.335)" fill="#3f3d56"/><rect width="5.372" height="5.655" transform="matrix(-0.485, 0.875, -0.875, -0.485, 130.766, 79.337)" fill="#3f3d56"/><rect width="5.372" height="5.655" transform="matrix(0.53, 0.848, -0.848, 0.53, 127.84, 102.336)" fill="#3f3d56"/><rect width="5.372" height="5.655" transform="matrix(-0.857, 0.515, -0.515, -0.857, 140.173, 72.184)" fill="#3f3d56"/><rect width="5.372" height="5.655" transform="translate(145.429 115.944)" fill="#3f3d56"/><rect width="5.372" height="5.655" transform="matrix(0.857, -0.515, 0.515, 0.857, 157.471, 114.459)" fill="#3f3d56"/><rect width="5.372" height="5.655" transform="matrix(-0.857, -0.515, 0.515, -0.857, 137.261, 119.306)" fill="#3f3d56"/><rect width="6.504" height="4.806" transform="translate(119.981 91.059)" fill="#3f3d56"/><rect width="6.504" height="4.806" transform="translate(177.663 95.865) rotate(180)" fill="#3f3d56"/><path d="M749.629,218.979a18.38,18.38,0,1,1-18.38,18.379,18.38,18.38,0,0,1,18.38-18.379m0-4.539a22.919,22.919,0,1,0,22.919,22.918A22.919,22.919,0,0,0,749.629,214.44Z" transform="translate(-558.109 -177.12)" fill="#3f3d56"/><rect width="5.372" height="5.655" transform="translate(188.127 31.962)" fill="#3f3d56"/><rect width="5.372" height="5.655" transform="matrix(0.857, 0.515, -0.515, 0.857, 203.083, 34.252)" fill="#3f3d56"/><rect width="5.372" height="5.655" transform="matrix(0.485, 0.875, -0.875, 0.485, 214.526, 43.512)" fill="#3f3d56"/><rect width="5.372" height="5.655" transform="matrix(-0.53, 0.848, -0.848, -0.53, 217.3, 72.252)" fill="#3f3d56"/><rect width="5.372" height="5.655" transform="matrix(-0.485, 0.875, -0.875, -0.485, 173.463, 46.256)" fill="#3f3d56"/><rect width="5.372" height="5.655" transform="matrix(0.53, 0.848, -0.848, 0.53, 170.538, 69.254)" fill="#3f3d56"/><rect width="5.372" height="5.655" transform="matrix(-0.857, 0.515, -0.515, -0.857, 182.871, 39.099)" fill="#3f3d56"/><rect width="5.372" height="5.655" transform="translate(188.127 82.86)" fill="#3f3d56"/><rect width="5.372" height="5.655" transform="matrix(0.857, -0.515, 0.515, 0.857, 200.17, 81.376)" fill="#3f3d56"/><rect width="5.372" height="5.655" transform="matrix(-0.857, -0.515, 0.515, -0.857, 179.958, 86.221)" fill="#3f3d56"/><rect width="6.504" height="4.806" transform="translate(162.677 57.975)" fill="#3f3d56"/><rect width="6.504" height="4.806" transform="translate(220.365 62.781) rotate(180)" fill="#3f3d56"/><path d="M428.671,213.669h.649a18.379,18.379,0,1,1-.625,36.752c-.216,0-.432,0-.651,0a18.379,18.379,0,1,1,.627-36.752m0-4.536h0a22.918,22.918,0,1,0-.785,45.828c.267,0,.534.01.8.01a22.918,22.918,0,1,0,.782-45.828c-.267,0-.534-.01-.8-.01Z" transform="translate(-322.558 -173.225)" fill="#3f3d56"/><rect width="5.372" height="5.655" transform="translate(103.711 30.451) rotate(1.99)" fill="#3f3d56"/><rect width="5.372" height="5.655" transform="matrix(0.839, 0.544, -0.544, 0.839, 118.575, 33.258)" fill="#3f3d56"/><rect width="5.372" height="5.655" transform="translate(129.692 42.91) rotate(62.99)" fill="#3f3d56"/><rect width="5.372" height="5.655" transform="translate(131.471 71.719) rotate(123.99)" fill="#3f3d56"/><rect width="5.372" height="5.655" transform="matrix(-0.515, 0.857, -0.857, -0.515, 88.56, 44.22)" fill="#3f3d56"/><rect width="5.391" height="5.675" transform="translate(84.463 67.525) rotate(60.113)" fill="#3f3d56"/><rect width="5.372" height="5.655" transform="translate(98.216 37.393) rotate(150.99)" fill="#3f3d56"/><rect width="5.372" height="5.655" transform="translate(101.946 81.316) rotate(1.99)" fill="#3f3d56"/><rect width="5.372" height="5.655" transform="translate(114.035 80.254) rotate(-29.01)" fill="#3f3d56"/><rect width="5.372" height="5.655" transform="matrix(-0.839, -0.544, 0.544, -0.839, 93.672, 84.39)" fill="#3f3d56"/><rect width="6.504" height="4.806" transform="translate(77.377 55.565) rotate(1.99)" fill="#3f3d56"/><rect width="6.504" height="4.806" transform="translate(134.864 62.362) rotate(-178.01)" fill="#3f3d56"/><path d="M258.228,731.741a5.516,5.516,0,0,0-1.893.59,4.448,4.448,0,0,0-1.647,2.221,19.234,19.234,0,0,0-1.105,6.942,14.926,14.926,0,0,0,.713,5.62,3.551,3.551,0,0,0,.942,1.471,3.354,3.354,0,0,0,1.29.625,3.52,3.52,0,0,0,3.022-.374,4.823,4.823,0,0,0,1.351-3.153,7.363,7.363,0,0,1,1.8-4.291c.86-.8,2.091-1.2,2.715-2.195.745-1.18.352-2.721-.123-4.034-.414-1.137-1.02-3.447-2.211-4.029S259.467,731.516,258.228,731.741Z" transform="translate(-211.301 -555.722)" fill="#fbbebe"/><path d="M427.662,748.729a8.931,8.931,0,0,1-1.869,3.447c-.534.609-1.188,1.348-.908,2.1a1.883,1.883,0,0,0,.5.665c3.914,3.831,9.39,5.7,14.824,6.373a.511.511,0,0,0,.267,0c.16-.072.2-.267.219-.446a5.642,5.642,0,0,0,0-1.709,5.113,5.113,0,0,0-2.566-2.993,8.014,8.014,0,0,1-3.017-2.635c-.8-1.484-.457-3.418-1.4-4.806a5.094,5.094,0,0,0-3.527-1.824c-.467-.072-1.46-.585-1.869-.347S427.8,748.265,427.662,748.729Z" transform="translate(-336.822 -567.117)" fill="#fbbebe"/><path d="M248.982,731.9a.534.534,0,0,0-.473-.534,1.709,1.709,0,0,0-.772.1,11.282,11.282,0,0,1-1.869.342,13.431,13.431,0,0,0-2.245.267,2.537,2.537,0,0,0-1.738,1.335,3.308,3.308,0,0,0-.192,1.252,19.127,19.127,0,0,0,.582,4.862.422.422,0,0,0,.2.312c.093.037.206,0,.3.043a.4.4,0,0,1,.174.216,10.729,10.729,0,0,1,.676,3.247q.267,2.454.676,4.891a5.359,5.359,0,0,0,.983,2.67,4.391,4.391,0,0,0,2.811,1.287,19.805,19.805,0,0,0,6.611-.6,1.927,1.927,0,0,0,1.113-.5,1.244,1.244,0,0,0,.267-.884c-.051-1.089-1.052-1.869-1.96-2.467l-1.25-.841a.649.649,0,0,1-.219-.2.7.7,0,0,1-.061-.4l.08-1.6a4.587,4.587,0,0,0-4,2.486c-.174.344-.336.748-.7.881a.921.921,0,0,1-1.092-.659,2.873,2.873,0,0,1,.04-1.41c.732-3.92.561-7.949,1.007-11.911a2.712,2.712,0,0,1,.4-1.255C248.538,732.527,248.942,732.265,248.982,731.9Z" transform="translate(-202.588 -556.02)" fill="#3f3d56"/><path d="M435.688,774.631c.184.3.47.534.641.849a.719.719,0,0,1-.139.953.939.939,0,0,1-.577.059,19.517,19.517,0,0,1-10.554-4.774,7.4,7.4,0,0,1-1.292-1.418c-.344-.534-.635-1.161-1.223-1.38a20.872,20.872,0,0,0-.534,4.64,3.3,3.3,0,0,0,.983,2.8,3.516,3.516,0,0,0,1.095.446l1.834.518a1.952,1.952,0,0,0,1.015.1c.216-.059.409-.195.63-.235a1.559,1.559,0,0,1,.713.091l1.583.462a10.476,10.476,0,0,1,1.567.534c.451.214.87.494,1.311.732a15.692,15.692,0,0,0,2.294.932l2.787.966a9.833,9.833,0,0,0,2.371.609c.561.048,1.129,0,1.685.1.422.072.83.224,1.258.267a3.324,3.324,0,0,0,1.976-.585,1.787,1.787,0,0,0,.574-.51,2.017,2.017,0,0,0-.336-2.069,8.125,8.125,0,0,0-2.825-2.908c-.486-.267-1.009-.465-1.509-.708-1.42-.689-2.5-1.84-3.839-2.627C435.907,771.732,435.09,773.651,435.688,774.631Z" transform="translate(-334.763 -583.554)" fill="#3f3d56"/><path d="M273.563,333.554a11.548,11.548,0,0,1-4.929,1.917,19.879,19.879,0,0,1-2.79.15,70.967,70.967,0,0,1-11.6-.969c1.527-1.682,3.07-3.471,3.647-5.676a9.323,9.323,0,0,0,.174-3.556,26.62,26.62,0,0,0-1.084-4.478,31.019,31.019,0,0,0,4.9-.125c.929-.093,3.2-.94,4.005-.3.75.6.184,2.7.171,3.674v.1a11.823,11.823,0,0,0,.937,4.288A8.159,8.159,0,0,0,273.563,333.554Z" transform="translate(-211.788 -254.7)" fill="#fbbebe"/><path d="M273.574,324.141a9.793,9.793,0,0,1-8.01,1.228,26.619,26.619,0,0,0-1.084-4.478,31.027,31.027,0,0,0,4.9-.126c.929-.093,3.2-.94,4.005-.3C274.153,321.062,273.587,323.169,273.574,324.141Z" transform="translate(-219.293 -254.663)" opacity="0.1"/><circle cx="9.772" cy="9.772" r="9.772" transform="translate(39.158 51.071)" fill="#fbbebe"/><path d="M294.946,389.913a4.539,4.539,0,0,1-2.2,3.922,8.7,8.7,0,0,1-2.4.841,47.424,47.424,0,0,1-13.638,1.685,7.514,7.514,0,0,1-2.894-.609,3.091,3.091,0,0,1-1.786-2.232,2.114,2.114,0,0,0-.142-.71,2,2,0,0,0-.678-.6,2.78,2.78,0,0,1-1.031-2.758c-.558.248-1.14-.312-1.4-.865s-.467-1.22-1.028-1.453a8.364,8.364,0,0,0-1.226-.171c-.643-.166-1.036-.8-1.49-1.276a11.587,11.587,0,0,0-3.452-2.112c-3.6-1.813-6.528-4.686-9.4-7.511a31.224,31.224,0,0,1-4.045-4.539c-.323-.473-.614-.959-.889-1.458a40.989,40.989,0,0,1-2.253-5.156,5.929,5.929,0,0,1-.582-2.937c.013-.091.032-.182.053-.267a5.62,5.62,0,0,1,.886-1.792,7.479,7.479,0,0,1,4-3.292c1.709-.449,3.415.093,5.15.462a13.124,13.124,0,0,0,1.749.267,16.3,16.3,0,0,0,5.439-.854l1.938-.534c.972-.267,1.458-1.442,2.44-1.647a3.426,3.426,0,0,1,1.316.067,18.159,18.159,0,0,1,5.759,1.882,9.49,9.49,0,0,1,1.119.761,7.078,7.078,0,0,1,2.6,3.842c.4,1.69.024,3.495.43,5.185a11.491,11.491,0,0,0,1.992,3.791l4.771,6.814a42.33,42.33,0,0,0,3.511,4.576C290.124,384.018,294.882,386.124,294.946,389.913Z" transform="translate(-204.554 -279.622)" fill="#0f0a3c"/><path d="M377.609,226.784a7.966,7.966,0,0,1,.86-2.713,6.2,6.2,0,0,1,1.263-1.335,8.45,8.45,0,0,1,2.707-1.693,3.382,3.382,0,0,1,3.068.355,4.083,4.083,0,0,1,1.348,2.822,6.948,6.948,0,0,1-.724,4.272c-.828,1.444-2.264,2.4-3.471,3.562a13.886,13.886,0,0,0-2.261,2.82,8.032,8.032,0,0,1-1.031,1.506,1.957,1.957,0,0,1-1.637.654,2.9,2.9,0,0,1-1.335-.782c-.494-.433-1.826-1.2-1.869-1.89-.032-.555,1.007-1.816,1.26-2.336A26.483,26.483,0,0,0,377.609,226.784Z" transform="translate(-299.958 -181.808)" fill="#fbbebe"/><path d="M341.389,530.746c-1.228,2.267-2.574,4.475-3.669,6.808-.638,1.364-1.191,2.769-1.9,4.1-.774,1.447-1.727,2.793-2.536,4.224a48.493,48.493,0,0,0-4.221,11.684,23.274,23.274,0,0,1-8.32-2.937c-.174-.1-.339-.208-.5-.323a5.939,5.939,0,0,1-1.679-1.85c.969-3.666,1.965-7.393,3.938-10.632.643-1.068,1.38-2.043,2.043-3.084,1.92-3.017,2.315-6.825,4.507-9.649a1.658,1.658,0,0,0,0-1.965c-.254-.328-.657-.641-.582-1.047.056-.3.366-.563.246-.841-.056-.133-.192-.206-.3-.3-.374-.344-.326-.932-.358-1.437a6.945,6.945,0,0,0-1.6-3.447,2.135,2.135,0,0,0-.585-.63c-.2-.12-.433-.174-.63-.3-.7-.438-.649-1.458-.985-2.213-.438-1-1.541-1.5-2.264-2.312-.921-1.028-1.156-2.462-2.136-3.362a2.676,2.676,0,0,0-.318-.267,16.463,16.463,0,0,1,.569,4.707c.093,5.444-1.268,11.08-.63,16.49.5,4.291-2.136,8.573-5.887,10.717a28.34,28.34,0,0,1-4.582,1.93c-2.347.83-4.686,1.687-6.987,2.649q-2.44,1.009-4.806,2.176a60.72,60.72,0,0,0-5.684,3.145,21.971,21.971,0,0,0-6.122,5.041,5.508,5.508,0,0,1-3.954-2.176,15.092,15.092,0,0,1-2.165-4.1,11.382,11.382,0,0,1-1.028-3.861.764.764,0,0,1,.465-.668l10.725-5.684,2.005-1.068c4.392-2.331,8.942-4.486,13.334-6.814.3.088.534-.248.622-.534s.15-.654.427-.782c.139-.067.32-.064.424-.182a.507.507,0,0,0,.075-.355c-.142-2.136-1.674-4.077-1.367-6.184a7.5,7.5,0,0,0,.392-2.67,11.652,11.652,0,0,0-.817-1.685c-.534-1.295,0-2.854-.577-4.122a9.533,9.533,0,0,1-.774-2.627,17.843,17.843,0,0,0-1.639-5.207,9.492,9.492,0,0,0-1.509-2.283c-.323-.347-.686-.657-.993-1.017a8.454,8.454,0,0,1-1.541-4,19.308,19.308,0,0,1-.214-7.818,11.1,11.1,0,0,0,.5-2.633c-.013-1.183-.534-2.563.288-3.418a2.653,2.653,0,0,1,1.2-.617,36.256,36.256,0,0,1,5.815-1.068l8.958-1.172a8.136,8.136,0,0,0,2.98-.777,5.992,5.992,0,0,0,2.515-3.2c1.573,1.148,2.16,3.287,3.415,4.769.611.724,1.367,1.308,2.037,1.973a22.865,22.865,0,0,1,2.245,2.769,48.741,48.741,0,0,1,5.073,8.029c.7,1.5,1.236,3.055,1.792,4.606,2.187,6.106,5.751,11.9,7.23,18.215.363,1.543,1.306,2.937,1.452,4.515A8.625,8.625,0,0,1,341.389,530.746Z" transform="translate(-229.394 -372.574)" fill="#3f3d56"/><path d="M338.091,472.877a2.751,2.751,0,0,0-.331,1.322c.2-.988,1.559-1.535,1.647-2.512.04-.451-.043-.43-.32-.192C338.665,471.859,338.481,472.49,338.091,472.877Z" transform="translate(-273.008 -365.418)" opacity="0.1"/><path d="M352.225,487.5a2.037,2.037,0,0,0-.619.916,2.323,2.323,0,0,0-.126,1.6c.2-.093.267-.339.328-.553a3.856,3.856,0,0,1,.425-.945c.16-.267.9-.862.9-1.143C353.122,486.95,352.423,487.351,352.225,487.5Z" transform="translate(-283.001 -377.043)" opacity="0.1"/><path d="M271.775,356.94a10.076,10.076,0,0,1-2.061,1.372c-1.936.98-4.08,1.5-6.029,2.448a29.851,29.851,0,0,0-2.8,1.631l-5.794,3.671a6.212,6.212,0,0,0-1.276.969c-.7.742-.694,2.048-1.335,2.844a3.911,3.911,0,0,1-2.811,1.3,9.134,9.134,0,0,1-3.132-.534,16.26,16.26,0,0,1-1.789-.651,8.431,8.431,0,0,1-1.719-.983,4.907,4.907,0,0,1-2.024-3.2,6.328,6.328,0,0,1,.344-2.611,10.019,10.019,0,0,1,.617-1.583,6.369,6.369,0,0,1,.491-.833c1.335-1.885,3.677-2.769,5.943-3.2,1.191-.232,2.4-.374,3.607-.577a13.124,13.124,0,0,0,1.749.267,16.3,16.3,0,0,0,5.439-.854l1.938-.534c.972-.267,1.458-1.442,2.44-1.647a3.425,3.425,0,0,1,1.316.067,18.158,18.158,0,0,1,5.759,1.882A9.49,9.49,0,0,1,271.775,356.94Z" transform="translate(-202.073 -279.556)" opacity="0.1"/><path d="M276.5,267.35c-.248,2.363-2.243,4.1-3.471,6.141-.59.991-1,2.077-1.535,3.1a30.75,30.75,0,0,1-2.029,3.231l-2.171,3.151a32.6,32.6,0,0,1-4.2,5.273c-2.844.483-5.228,2.6-7.925,3.621-2.157.82-4.51.932-6.774,1.372s-4.611,1.335-5.941,3.2a8.386,8.386,0,0,0-1.111,2.4,6.226,6.226,0,0,0-.342,2.609,4.952,4.952,0,0,0,2.021,3.2,11.183,11.183,0,0,0,3.508,1.634,9.2,9.2,0,0,0,3.132.534,3.81,3.81,0,0,0,2.814-1.3c.662-.833.63-2.1,1.335-2.844a6.231,6.231,0,0,1,1.279-.969l5.794-3.671a29.851,29.851,0,0,1,2.8-1.621c1.949-.953,4.093-1.469,6.029-2.448s3.738-2.6,4.125-4.734c1.18-6.563,5.722-12.1,9.612-17.515-.128-.027-.088-.318-.136-.441a5.6,5.6,0,0,0-2.846-2.868A16.841,16.841,0,0,0,276.5,267.35Z" transform="translate(-202.068 -215.903)" fill="#0f0a3c"/><path d="M227.212,255.059a3.621,3.621,0,0,0-.4-2.061c-.643-1.068-1.992-1.444-3.2-1.7q-1.76-.36-3.535-.619a7.981,7.981,0,0,0-2.924-.048,19.777,19.777,0,0,0-3.658,1.725,24.979,24.979,0,0,1-4.638,1.183,7.062,7.062,0,0,0-4.133,2.237,7.739,7.739,0,0,0-1.26,3.386c-1.85,9.983.142,20.223.521,30.368.147,3.949-.032,8.17-2.288,11.414l6.571-.174c1.682-.043,3.49-.131,4.806-1.169a7.978,7.978,0,0,0,2.213-3.778,11.69,11.69,0,0,0,.838-3.38c.1-2.384-1.25-4.726-.8-7.073a7.883,7.883,0,0,1,2.966-4.317,25.871,25.871,0,0,0,3.984-3.546c1.97-2.491,2.347-5.9,2.1-9.059a34.544,34.544,0,0,1-.32-5.647,7.12,7.12,0,0,1,1.49-3.957A5.52,5.52,0,0,0,227.212,255.059Z" transform="translate(-173.268 -203.564)" fill="#3f3d56"/><path d="M226.773,255.192a4.538,4.538,0,0,0-3.151-1.682,3.105,3.105,0,0,1,1.559,1.228,3.6,3.6,0,0,1,.4,2.061,5.5,5.5,0,0,1-1.685,3.789,7.112,7.112,0,0,0-1.49,3.957,34.543,34.543,0,0,0,.32,5.647c.246,3.164-.131,6.568-2.1,9.059a26.266,26.266,0,0,1-3.984,3.546,7.873,7.873,0,0,0-2.969,4.317c-.441,2.347.913,4.689.8,7.073a11.7,11.7,0,0,1-.841,3.38,7.948,7.948,0,0,1-2.213,3.775c-1.335,1.039-3.132,1.129-4.806,1.172l-4.654.123c-.1.171-.211.342-.326.5l6.571-.174c1.682-.043,3.49-.131,4.806-1.169a7.978,7.978,0,0,0,2.213-3.778,11.69,11.69,0,0,0,.838-3.38c.1-2.384-1.25-4.726-.8-7.073a7.883,7.883,0,0,1,2.966-4.317,25.872,25.872,0,0,0,3.984-3.546c1.97-2.491,2.347-5.9,2.1-9.059A34.543,34.543,0,0,1,224,265a7.12,7.12,0,0,1,1.49-3.957,5.451,5.451,0,0,0,1.685-3.789A3.621,3.621,0,0,0,226.773,255.192Z" transform="translate(-173.232 -205.758)" opacity="0.1"/><path d="M442.95,591.539l-12.06,29.41a5.938,5.938,0,0,1-1.679-1.85c.969-3.666,1.965-7.393,3.938-10.632.643-1.068,1.38-2.043,2.043-3.084,1.92-3.017,2.315-6.824,4.507-9.649a1.658,1.658,0,0,0,0-1.965c-.254-.328-.657-.641-.582-1.047.056-.3.366-.563.246-.841-.056-.133-.192-.206-.3-.3-.374-.344-.326-.932-.358-1.436a6.945,6.945,0,0,0-1.6-3.447,2.135,2.135,0,0,0-.585-.63c-.2-.12-.433-.174-.63-.3-.7-.438-.649-1.458-.985-2.213-.438-1-1.541-1.5-2.264-2.312-.921-1.028-1.156-2.462-2.136-3.362l-.083-.208.94-5.674Z" transform="translate(-340.041 -439.212)" opacity="0.1"/></g></svg>