<svg xmlns="http://www.w3.org/2000/svg" xmlns:xlink="http://www.w3.org/1999/xlink" width="292.938" height="215.073" viewBox="0 0 292.938 215.073"><defs><linearGradient id="a" x1="0.5" y1="1" x2="0.5" gradientUnits="objectBoundingBox"><stop offset="0" stop-color="gray" stop-opacity="0.251"/><stop offset="0.54" stop-color="gray" stop-opacity="0.122"/><stop offset="1" stop-color="gray" stop-opacity="0.102"/></linearGradient></defs><g transform="translate(0.007 0.053)"><path d="M133.774,257.42c6.164,13.923-1.7,29.961-10.944,42.05-3.1,4.046-6.507,8.282-6.942,13.376-.518,6.212,3.689,11.923,8.682,15.656a36.556,36.556,0,0,0,32.369,5.475c9.362-2.958,17.233-9.664,26.675-12.367,15.8-4.523,32.537,2.976,46.058,12.314,9.569,6.608,19.818,14.642,31.354,13.231,8.123-.994,15.015-6.694,19.688-13.408,2.257-3.254,4.221-6.871,7.51-9.06a18.755,18.755,0,0,1,6.549-2.482c20.972-4.481,43.224,6.457,63.918.831,13.976-3.8,25.122-14.849,32.049-27.565s10.164-27.08,12.858-41.311c1.914-10.113,3.5-21.025-.887-30.331-4.656-9.844-15.432-15.81-26.261-16.925s-21.694,1.976-31.671,6.336c-12.468,5.452-24.687,13.083-38.3,13.11-9.267.018-18.1-3.55-26.965-6.25-14.843-4.535-30.224-6.788-45.585-8.868-14.7-1.991-29.538-3.845-44.325-2.662-10.462.831-19.7,4.83-29.852,6.679-6.617,1.207-13.266.3-19.759,2.34-7.986,2.5-16.221,8.3-16.662,17.425C122.918,243.69,130.5,250.028,133.774,257.42Z" transform="translate(-112.594 -171.16)" fill="#0f0a3c" opacity="0.1"/><g transform="translate(190.722 50.896)" opacity="0.5"><path d="M765.341,261.915a6.1,6.1,0,0,0-4.215,4.546c-1.775,5.916,2.331,9.962.985,16.106a12.013,12.013,0,0,1-2.071,4.517c-1.648,2.233-3.44,3.292-5.173,4.857a15.435,15.435,0,0,0-4.546,7.466,20.664,20.664,0,0,0-.2,9.705,38.506,38.506,0,0,0,2.588,6.8,50.24,50.24,0,0,1,2.662,8.578,20.861,20.861,0,0,1,.592,4.351,38.4,38.4,0,0,1-.538,5.821l-2.505,17.484a51.926,51.926,0,0,0-.683,6.91,34.2,34.2,0,0,0,.8,6.9c.887,4.626,1.825,9.427,3.845,11.867s5.446,1.594,7.555-3.387c2.005-4.733,2.047-11.063,3.816-16.127,2.786-7.986,8.33-9.051,11.4-16.662,2.958-7.3,2.047-16.269,3.549-24.586,1.071-5.966,3.351-11.409,4.7-17.3a54.852,54.852,0,0,0,.2-23.832,31.653,31.653,0,0,0-7.416-14.405c-1.3-1.441-2.7-2.721-4.336-2.849-1.742-.133-3.254,2.071-4.984,2.718C769.36,262.143,767.361,261.341,765.341,261.915Z" transform="translate(-749.636 -258.67)" fill="#0f0a3c"/><path d="M798.051,260.09s-2.958,75.51-15.361,120.039" transform="translate(-772.913 -259.67)" fill="none" stroke="#535461" stroke-miterlimit="10" stroke-width="2"/><path d="M788.22,286.26s13.246,12.071,10.746,35.072" transform="translate(-776.807 -278.099)" fill="none" stroke="#535461" stroke-miterlimit="10" stroke-width="2"/><path d="M750.6,402.38s21.771,4.378,20.156,17.4" transform="translate(-750.315 -359.871)" fill="none" stroke="#535461" stroke-miterlimit="10" stroke-width="2"/><path d="M840.116,316.41s-8.806,7.711-16.656,29.553" transform="translate(-801.623 -299.331)" fill="none" stroke="#535461" stroke-miterlimit="10" stroke-width="2"/><path d="M824.865,511.546s-6.011,4.733-10.835-11.776" transform="translate(-794.982 -428.454)" fill="none" stroke="#535461" stroke-miterlimit="10" stroke-width="2"/><path d="M763,550.039s12.258-1.6,13.388-9.279" transform="translate(-759.047 -457.319)" fill="none" stroke="#535461" stroke-miterlimit="10" stroke-width="2"/></g><path d="M837.4,89.974c-3.035.45-6.685,1.855-8.185,6.194-2.943,8.507,6.008,14.947,3.946,23.835a13.362,13.362,0,0,1-3.748,6.407c-3.147,3.094-6.729,4.437-10.131,6.537a19.09,19.09,0,0,0-8.528,10.456,22.042,22.042,0,0,0,.725,14.269c1.594,4.02,4.008,7.016,6.164,10.323a69.936,69.936,0,0,1,6.552,12.929,24.865,24.865,0,0,1,1.73,6.475,39.172,39.172,0,0,1-.423,8.507l-3.112,25.438a52.941,52.941,0,0,0-.592,10.1,39.776,39.776,0,0,0,2.479,10.255c2.366,6.916,4.9,14.1,9.356,17.931s11.462,2.993,15.23-4.094c3.588-6.747,2.928-16.05,5.987-23.3,4.821-11.421,16.165-12.344,21.623-23.184,5.239-10.4,2.307-23.705,4.41-35.791,1.509-8.661,5.588-16.4,7.691-24.924a58.745,58.745,0,0,0-2.417-35.072A53.786,53.786,0,0,0,869.1,91.172c-2.869-2.275-5.916-4.33-9.312-4.709-3.621-.4-6.508,2.644-9.995,3.411C845.744,90.782,841.515,89.365,837.4,89.974Z" transform="translate(-601.343 -86.48)" fill="#0f0a3c"/><path d="M925.958,88.12s2.854,110.852-17.558,174.954" transform="translate(-670.716 -87.672)" fill="none" stroke="#535461" stroke-miterlimit="10" stroke-width="2"/><path d="M874.83,121.16s28.875,19.351,26.4,52.924" transform="translate(-647.076 -110.939)" fill="none" stroke="#535461" stroke-miterlimit="10" stroke-width="2"/><path d="M810.75,287.71s45.576,9.028,43.778,28.009" transform="translate(-601.95 -228.225)" fill="none" stroke="#535461" stroke-miterlimit="10" stroke-width="2"/><path d="M994.157,176.42s-17.322,10.311-30.967,41.544" transform="translate(-709.299 -149.854)" fill="none" stroke="#535461" stroke-miterlimit="10" stroke-width="2"/><path d="M977.39,457.245s-11.879,6.253-23.82-18.635" transform="translate(-702.525 -334.489)" fill="none" stroke="#535461" stroke-miterlimit="10" stroke-width="2"/><path d="M856.47,510.414s25.181-.905,26.622-12.074" transform="translate(-634.146 -376.551)" fill="none" stroke="#535461" stroke-miterlimit="10" stroke-width="2"/><ellipse cx="126.503" cy="12.151" rx="126.503" ry="12.151" transform="translate(17.903 160.765)" fill="#0f0a3c" opacity="0.1"/><path d="M155.872,622.29s2.479,3.254-1.145,8.134-6.611,9.028-5.389,12.077c0,0,5.466-9.09,9.915-9.217S160.768,627.756,155.872,622.29Z" transform="translate(-135.985 -463.838)" fill="#0f0a3c"/><path d="M156.189,622.29a4.014,4.014,0,0,1,.506,1.018c4.342,5.1,6.652,9.859,2.482,9.98-3.887.112-8.548,7.061-9.667,8.818a3.766,3.766,0,0,0,.133.4s5.466-9.09,9.915-9.217S161.084,627.756,156.189,622.29Z" transform="translate(-136.302 -463.838)" opacity="0.1"/><path d="M186.262,634.534c0,1.142-.127,2.071-.3,2.071s-.3-.926-.3-2.071.16-.592.316-.592S186.262,633.392,186.262,634.534Z" transform="translate(-161.766 -471.949)" fill="#ffd037"/><path d="M188.347,639c-1,.547-1.875.887-1.949.737s.674-.7,1.677-1.239.606-.148.683,0S189.353,638.45,188.347,639Z" transform="translate(-162.275 -475.055)" fill="#ffd037"/><path d="M114.6,622.29s-2.479,3.254,1.145,8.134,6.6,9.028,5.416,12.077c0,0-5.466-9.09-9.915-9.217S109.71,627.756,114.6,622.29Z" transform="translate(-107.81 -463.838)" fill="#0f0a3c"/><path d="M114.577,622.29a4.014,4.014,0,0,0-.506,1.018c-4.342,5.1-6.652,9.859-2.482,9.98,3.887.112,8.548,7.061,9.667,8.818a3.761,3.761,0,0,1-.133.4s-5.466-9.09-9.915-9.217S109.685,627.756,114.577,622.29Z" transform="translate(-107.785 -463.838)" opacity="0.1"/><path d="M112.25,634.534c0,1.142.127,2.071.3,2.071s.3-.926.3-2.071-.16-.592-.317-.592S112.25,633.392,112.25,634.534Z" transform="translate(-110.063 -471.949)" fill="#ffd037"/><path d="M105.445,639c1,.547,1.875.887,1.949.737s-.674-.7-1.677-1.239-.606-.148-.683,0S104.442,638.45,105.445,639Z" transform="translate(-104.84 -475.055)" fill="#ffd037"/><path d="M114.91,680.278s6.93-.213,9.019-1.7,10.649-3.254,11.178-.887,10.415,11.864,2.591,11.926-18.18-1.219-20.265-2.488S114.91,680.278,114.91,680.278Z" transform="translate(-111.936 -502.037)" fill="#a8a8a8"/><path d="M137.847,697.7c-7.824.062-18.18-1.219-20.265-2.488-1.588-.967-2.221-4.437-2.431-6.037h-.231s.438,5.591,2.523,6.859,12.441,2.553,20.277,2.491c2.26-.018,3.038-.822,3-2.011C140.382,697.237,139.527,697.687,137.847,697.7Z" transform="translate(-111.943 -510.942)" opacity="0.2"/><path d="M419.87,481.534s34.682-22.158,58.659-22.158c0,0,28.867-4.5,60.265,3.1s43,17.452,51.7,14.559l-36.572,1.071Z" transform="translate(-326.691 -348.183)" fill="#8cd0f3"/><path d="M419.87,481.534s34.682-22.158,58.659-22.158c0,0,28.867-4.5,60.265,3.1s43,17.452,51.7,14.559l-36.572,1.071Z" transform="translate(-326.691 -348.183)" fill="#8cd0f3" opacity="0.1"/><path d="M364.117,487.363H152.6l5.815-23.3,35.969-9.563,169.733,4.461Z" transform="translate(-107.467 -320.099)" fill="#121c3f"/><path d="M446.8,503.981v7.436s-6.28,4.555-6.851,8.122c0,0-8.992,2.284-11.56,2.284a7.458,7.458,0,0,0-.754.027,21.348,21.348,0,0,0,.938-3.31,21.8,21.8,0,1,0-41.373,4.437H375s-.112.038-.3.118c-.654.3-2.195,1.077-2.417,2.3H271.245l-2.071-.018a21.379,21.379,0,0,0,1.183-2.289,21.122,21.122,0,0,0,1.438-4.546,21.819,21.819,0,1,0-40.2,6.765c-1.443-.352-4.594-1.352-4.594-1.352s-13.414-1.426-16.84-4.437l.518-.358,2.195-1.5-1-3.845a2.366,2.366,0,0,1-.3-.526,3.519,3.519,0,0,1,.441-3.331c1.426-2.284.713-10.418.713-10.418s19.41-13.414,57.659-16.414a5.522,5.522,0,0,0,2.8.858,12.236,12.236,0,0,0,5.194-.858s3.138,1.426,16.565-6.28c0,0,22.838-15.7,52.811-14.269,0,0,30.828-1.858,57.088,8.282a161.647,161.647,0,0,0,26.065,7.924,60.465,60.465,0,0,0,10.856,1.367h1.044s0,3.4.18,7.413v.021c.065,1.4.154,2.866.278,4.295v.089c.343,3.978.935,7.593,1.961,8.309Z" transform="translate(-179.012 -351.276)" fill="#2856b8"/><path d="M228.559,573.715s8.6-6.709,19.3-5.28c0,0-9.741,7.708-14.13,7.208l-.748-.642-4.437.248S227.885,574.215,228.559,573.715Z" transform="translate(-191.755 -425.772)" fill="#8cd0f3"/><path d="M225.423,626v3.961s-.3,3.783-3.712,3.925l-9.761.482,2.192-1.5-1-3.845a2.287,2.287,0,0,1-.3-.524c.887-.816,2.979-2.195,7.232-2.491Z" transform="translate(-180.272 -466.45)" fill="#fff" opacity="0.2"/><path d="M411.06,569.176l7.492-.3s-3.032,2.39-5.173,2.606S411.06,569.176,411.06,569.176Z" transform="translate(-320.487 -426.226)" fill="#fff" opacity="0.2"/><path d="M464.38,630.024s67.758-9.421,84.136-6.425c0,0,4.816.322,6.638,2.248s0,.677,0,.677Z" transform="translate(-358.035 -464.345)" fill="#fff" opacity="0.2"/><path d="M592.61,552.316s.858-1.606,2.248-1.642l9.028-.464a2.225,2.225,0,0,1-1.748,1.713Z" transform="translate(-448.335 -413.079)" fill="#18218a" opacity="0.5"/><path d="M769.21,543.118s.858-1.606,2.248-1.642l9.028-.476a2.225,2.225,0,0,1-1.748,1.713Z" transform="translate(-572.698 -406.593)" fill="#18218a" opacity="0.5"/><path d="M535.863,472.934,528.935,491.1l-24.977.027H481.62s3.337-2.449,8.711-5.57c1.775-1.035,3.789-2.142,5.975-3.254,2.011-1.029,4.177-2.071,6.451-3.059,1.775-.781,3.644-1.532,5.555-2.233C516.976,473.845,526.714,471.718,535.863,472.934Z" transform="translate(-370.175 -358.416)" fill="#8cd0f3"/><path d="M707.753,485.991s-10.436,1.547-20.4,2.692c-3.807.438-7.543.816-10.6,1.026l-.426.03c-1.183.077-2.281.127-3.212.145a11.821,11.821,0,0,1-3.138-.216l2.878-17.378s3.55.038,8.8.3l1.148.062c1.091.062,2.242.133,3.443.216,1.716.118,3.523.26,5.386.432,9,.825,19.191,2.307,25.645,4.975C731.014,483.956,707.753,485.991,707.753,485.991Z" transform="translate(-502.819 -358.207)" fill="#8cd0f3"/><path d="M945.729,548.146v4.638s-7.493.106-5.886-1.39a22.961,22.961,0,0,0,2.819-3.254Z" transform="translate(-692.699 -411.621)" fill="#8cd0f3"/><path d="M983.744,546.2l-6.085.476V541.1s2.819-3.961,5.638.429l.163.257Z" transform="translate(-719.489 -405.506)" fill="#8cd0f3"/><circle cx="17.413" cy="17.413" r="17.413" transform="translate(53.984 145.568)" fill="#182a7c"/><path d="M326.717,604.239a14.015,14.015,0,1,1-.3-2.84,14.015,14.015,0,0,1,.3,2.84Z" transform="translate(-241.353 -441.273)" fill="#3f8ffe"/><ellipse cx="12.006" cy="12.036" rx="12.006" ry="12.036" transform="translate(59.37 150.927)" fill="#18218a" opacity="0.5"/><path d="M342.593,590.726v.509l-4,13.231-3.206-13.959A14.047,14.047,0,0,1,342.593,590.726Z" transform="translate(-267.199 -441.198)" fill="#3f8ffe"/><path d="M342.873,651.712a14.05,14.05,0,0,1-7.043.243L338.9,638.57Z" transform="translate(-267.509 -475.302)" fill="#3f8ffe"/><path d="M360.226,630.8a14.045,14.045,0,0,1-.668,4.3H359.5l-13.231-4,13.683-3.141a14.123,14.123,0,0,1,.272,2.837Z" transform="translate(-274.861 -467.83)" fill="#3f8ffe"/><path d="M312.89,631.07l-13.231,4h-.1a14.162,14.162,0,0,1-.382-7.146Z" transform="translate(-241.493 -467.802)" fill="#3f8ffe"/><circle cx="1.535" cy="1.535" r="1.535" transform="translate(69.841 161.428)" fill="#182a7c"/><circle cx="17.413" cy="17.413" r="17.413" transform="translate(210.657 145.568)" fill="#182a7c"/><path d="M856.4,604.239a14.015,14.015,0,1,1-.3-2.84A14.015,14.015,0,0,1,856.4,604.239Z" transform="translate(-614.356 -441.273)" fill="#3f8ffe"/><ellipse cx="12.006" cy="12.036" rx="12.006" ry="12.036" transform="translate(216.047 150.927)" fill="#18218a" opacity="0.5"/><path d="M872.263,590.726v.509l-4,13.231-3.206-13.959A14.047,14.047,0,0,1,872.263,590.726Z" transform="translate(-640.196 -441.198)" fill="#3f8ffe"/><path d="M872.553,651.712a14.05,14.05,0,0,1-7.043.243l3.073-13.385Z" transform="translate(-640.513 -475.302)" fill="#3f8ffe"/><path d="M889.87,630.79a14.045,14.045,0,0,1-.669,4.3h-.068l-13.234-4,13.683-3.141A14.119,14.119,0,0,1,889.87,630.79Z" transform="translate(-647.829 -467.823)" fill="#3f8ffe"/><path d="M842.56,631.07l-13.231,4h-.1a14.163,14.163,0,0,1-.382-7.146Z" transform="translate(-614.489 -467.802)" fill="#3f8ffe"/><circle cx="1.535" cy="1.535" r="1.535" transform="translate(226.518 161.428)" fill="#182a7c"/><path d="M509.351,505.5l-4.375,8.818H500.14l3.233-5.564C505.157,507.718,507.165,506.615,509.351,505.5Z" transform="translate(-383.217 -381.594)" fill="#fff" opacity="0.2"/><path d="M546.178,487.61l-4.357,14.1H535.39l5.236-11.873C542.412,489.062,544.27,488.317,546.178,487.61Z" transform="translate(-408.04 -368.995)" fill="#fff" opacity="0.2"/><path d="M693.74,473.625l-9.492,16.834-.426.03c-1.183.077-2.281.127-3.212.145l8.54-17.283,1.148.062C691.374,473.471,692.534,473.542,693.74,473.625Z" transform="translate(-510.305 -358.953)" fill="#fff" opacity="0.2"/><path d="M364.439,448.63l-5.419,37.326,45.26-.991,7.43-36.173Z" transform="translate(-252.829 -315.965)" fill="none" stroke="#fff" stroke-miterlimit="10" stroke-width="1" opacity="0.2"/><path d="M515.207,667.433c-.654.3-2.195,1.077-2.417,2.3H411.741l-2.071-.018a21.377,21.377,0,0,0,1.183-2.289Z" transform="translate(-319.508 -495.625)" fill="#18218a" opacity="0.5"/><path d="M435.6,740.931a4.711,4.711,0,0,0,1.538-2.319,2.066,2.066,0,0,0-1.074-2.366c-.985-.379-2.041.3-2.84,1s-1.716,1.479-2.76,1.331a4.2,4.2,0,0,0,1.3-3.934,1.645,1.645,0,0,0-.361-.8c-.547-.592-1.541-.334-2.195.127-2.071,1.479-2.662,4.3-2.677,6.848a13.026,13.026,0,0,1-.038-2.822,2.9,2.9,0,0,0-1.059-2.5,3.191,3.191,0,0,0-1.615-.379,3.333,3.333,0,0,0-2.621.745,2.6,2.6,0,0,0,.1,3.218,10.236,10.236,0,0,0,2.712,2.174,6.017,6.017,0,0,1,1.937,1.849,1.827,1.827,0,0,1,.145.331h5.874A16.374,16.374,0,0,0,435.6,740.931Z" transform="translate(-327.265 -542.15)" fill="#0f0a3c"/><path d="M860,762.408a3.452,3.452,0,0,0,1.133-1.71,1.518,1.518,0,0,0-.793-1.742,2.221,2.221,0,0,0-2.094.737,2.786,2.786,0,0,1-2.038.982,3.1,3.1,0,0,0,.958-2.9,1.212,1.212,0,0,0-.266-.592c-.405-.432-1.136-.246-1.621.095-1.538,1.083-1.967,3.171-1.976,5.052a9.686,9.686,0,0,1-.03-2.071,2.138,2.138,0,0,0-.781-1.84,2.367,2.367,0,0,0-1.183-.281,2.463,2.463,0,0,0-1.935.55,1.9,1.9,0,0,0,.077,2.366,7.7,7.7,0,0,0,2,1.6,4.437,4.437,0,0,1,1.432,1.364,1.357,1.357,0,0,1,.107.242h4.333A12.078,12.078,0,0,0,860,762.408Z" transform="translate(-628.883 -558.652)" fill="#0f0a3c"/><path d="M925,794.218a3.452,3.452,0,0,0,1.133-1.71,1.517,1.517,0,0,0-.793-1.742,2.221,2.221,0,0,0-2.094.737,2.786,2.786,0,0,1-2.038.982,3.1,3.1,0,0,0,.958-2.9,1.213,1.213,0,0,0-.266-.592c-.405-.432-1.136-.246-1.621.095-1.538,1.083-1.967,3.171-1.976,5.052a9.682,9.682,0,0,1-.03-2.071,2.138,2.138,0,0,0-.781-1.84,2.365,2.365,0,0,0-1.183-.281,2.463,2.463,0,0,0-1.935.55,1.9,1.9,0,0,0,.077,2.366,7.7,7.7,0,0,0,2,1.6,4.437,4.437,0,0,1,1.432,1.364,1.359,1.359,0,0,1,.106.243h4.333A12.078,12.078,0,0,0,925,794.218Z" transform="translate(-674.656 -581.052)" fill="#0f0a3c"/><path d="M585.1,580.735s-1.032.562-1.5-2.621c-.3-2.071-1.157-6.339-1.722-9.11l-.071-.352a4.823,4.823,0,0,0,.476-.177s-3.289-12.719-2.538-15.535,0-7.862,0-7.862l-1.973-6.644s-4.887-1.686-6.765-2.153-7.141-3.745-7.141-3.745a4.07,4.07,0,0,1,.254.328l-.21-.127a7.843,7.843,0,0,1-1.035-1.183,7.448,7.448,0,0,0,1.946-4.046,8.4,8.4,0,0,0-.42-8.546,4.192,4.192,0,0,0,.719-1.343,2.2,2.2,0,0,0,.08-.686,1.825,1.825,0,0,0-1.029-1.813,1.8,1.8,0,0,0-1.414.015,6.09,6.09,0,0,1-1.2.639c-.76.157-1.411-.453-2.008-.905a6.044,6.044,0,0,0-3.192-1.183,3.1,3.1,0,0,0-1.479.2,5.949,5.949,0,0,0-1.225.92c-1.355,1.091-3.254,1.4-4.955,1.991-.325.112-.686.3-.745.592a.432.432,0,0,0,0,.177h0a.438.438,0,0,0,.018.225,16.651,16.651,0,0,0-6.274,2.94l-.521.482a.994.994,0,0,0-1.086.092l-1.047.822a.985.985,0,0,0-.237,1.284l-7.658,7.1-.166.154v-.027s-5.916,4.493-5.916,7.673a5.332,5.332,0,0,0,2.742,4.328,7.336,7.336,0,0,0-1.911,2.958h0v.719h0v.1l-.024.13v.053l-.015.089v.183l-.021.118h0l-.027.148v.03l-.021.124v.059l-.024.136v.036l-.027.154v.068l-.068.387h0l-.035.21v.036l-.039.216v.03l-.038.219v.018l-.041.231v.05l-.041.228v.05l-.038.225v.027l-.044.254v.047l-.1.568h0l-.05.3v.044l-.05.3v.021l-.109.592v.05l-.053.3v.041l-.115.624v.027l-.059.317v.027l-.118.645v.041l-.059.319v.024l-.124.66v.036l-.062.325v.024l-.127.669v.027l-.062.325v.027l-.541.669v.03l-.065.322v.018l-.133.657v.018l-.065.319v.018l-.13.627v.027l-.062.3v.027l-.127.592v.021l-.062.3v.03l-.124.559v.015l-.059.263v.027q-.062.266-.121.515h0l-.059.243v.021q-.059.243-.115.464h0l-.056.213v.024l-.053.2a5.155,5.155,0,0,1-.592,1.618,1.663,1.663,0,0,0-.346.544h0l-.024.059-.024.065-.021.065-.1.089-.021.068-.018.062-.018.071v.065l-.015.071v.065a.447.447,0,0,1-.024.142V568.1l.887.269s.447.246,1.136.565a43.257,43.257,0,0,1-1.121,9.5c-1.668.086-5.789.26-6.534-.038-.941-.376-6.954-1.31-5.073,2.993a9.588,9.588,0,0,0,4.221,4.141,5.253,5.253,0,0,1-.651.169c-1.532.3-1.958.808-1.9,1.334-.109.887,1.4,1.878,1.523,1.94.189.095,6.575,1.124,8.081.654s7.611-1.591,7.611-1.591v-.186h0s-.083-1.84-.314-3.585c.692-.1,1.446-.192,2.18-.248a2.976,2.976,0,0,0,1.609,2.056c4.041,2.071,5.357-.748,5.357-.748s5.463,1.05,8.516.3a9,9,0,0,0,.784.648c.991.713,3.659,1.2,6.644,1.236a9.418,9.418,0,0,0,2.384-.068,22.088,22.088,0,0,0,3.9-.612c3.594-.932,4.384-4.274,4.555-5.792.142-.041.243-.189.3-.467a1.346,1.346,0,0,0,.124-.482,14.227,14.227,0,0,1,.385-2.035l4.437.248c1.982,3.6,3.733,6.457,3.733,6.457l3.005-.376a17.362,17.362,0,0,1-3.476-3.745c-1.5-2.245-1.5-13.015-1.5-13.015l.169-6.558v-.248a36.127,36.127,0,0,0,2.73,7.664c.18.059.358.112.532.163l.16.42c1.254,3.325,4.437,11.832,4.662,13.175.3,1.686,12.027,2.34,14.657,1.5S585.1,580.735,585.1,580.735ZM543.2,543.488l-4.3,6.46a42.883,42.883,0,0,0-4.608-6.732C538.1,543.343,542.5,543.479,543.2,543.488Zm-.654-16.565a1,1,0,0,0,1.038-.115l.367-.3a.985.985,0,0,0,.251-1.266l.219-.216a32.716,32.716,0,0,0,4.472-1.086,8.351,8.351,0,0,0,1.094,3.8,7.411,7.411,0,0,0,.722,2.13c-.674-.056-1.408-.095-2.109-.089a11,11,0,0,0-1.831.115c-2.254.376-2.538,4.493-2.538,4.493a31.3,31.3,0,0,1-7.25,1.648,3.408,3.408,0,0,1-1.018-.151l-.275-.018.37-1.012s-.16.05-.423.1q.127-.192.266-.39a71.354,71.354,0,0,1,6.644-7.643ZM533.238,576.9a17.479,17.479,0,0,0-.932,1.834c-1.068.207-2.523.322-3.3-.337a1.922,1.922,0,0,0-1.236-.435l.018-.035a22.968,22.968,0,0,0,1.34-5.673,6.019,6.019,0,0,0,3.357-1.441l2.168.742.08.151.053.1.086.16.053.1.086.157.056.1.086.154.056.1.083.151.056.1.086.151.056.1.086.148.053.095.086.148.053.092.083.145.053.092.086.145.05.083.086.142.05.083.086.142.044.074.089.145.033.053c.154.251.3.491.441.716l.021.033.083.13.035.056.074.118.041.062.068.106.041.068.062.1.044.068.059.092.041.065.053.083.041.065.05.077.041.065.047.071.041.062h0A19.051,19.051,0,0,1,533.238,576.9Z" transform="translate(-390.348 -387.343)" fill="url(#a)"/><path d="M747.347,708.361c-2.565.825-14.015.183-14.29-1.479-.219-1.322-3.322-9.643-4.546-12.9l-.491-1.3,5.954-1.284s.219,1.044.521,2.532c.55,2.715,1.381,6.907,1.677,8.918.458,3.115,1.479,2.565,1.479,2.565S749.9,707.536,747.347,708.361Z" transform="translate(-543.691 -512.505)" fill="#ffbdc6"/><path d="M665.458,566s-.458,2.748,3.482,5.324.55,11.817.55,11.817l-2.914.163a7.161,7.161,0,0,1-7.531-6.484h0s1.648-2.662-1.375-9.528Z" transform="translate(-494.151 -424.198)" fill="#ffbdc6"/><path d="M592.328,537.445a85.6,85.6,0,0,0-8.306,9.338,13.45,13.45,0,0,0-.855,1.378c-1.923,3.665-6.4-2.292-4.848-4.351l1.068-1,10.282-9.584s7.055-5.5,10.625-1.556S592.328,537.445,592.328,537.445Z" transform="translate(-438.047 -399.024)" fill="#ffbdc6"/><circle cx="8.244" cy="8.244" r="8.244" transform="translate(158.633 128.758)" fill="#a66477"/><path d="M526.14,730.26s-6.138.367-7.055,0-6.777-1.281-4.934,2.934,8.794,5.954,8.794,5.954l5.029-1.284Z" transform="translate(-392.833 -539.628)" fill="#7679b4"/><path d="M526.14,730.26s-6.138.367-7.055,0-6.777-1.281-4.934,2.934,8.794,5.954,8.794,5.954l5.029-1.284Z" transform="translate(-392.833 -539.628)" opacity="0.05"/><path d="M614.709,670.08l12.32,5,7.007,14.884s.092,5.221-4.487,6.413-10.992.642-12.642-.55-8.427-8.244-8.427-8.244Z" transform="translate(-459.511 -497.492)" fill="#7679b4"/><path d="M613.872,670.08l10.663,4,6.067,11.912s.08,4.18-3.884,5.132-9.516.512-10.944-.441-7.294-6.6-7.294-6.6Z" transform="translate(-459.511 -497.492)" opacity="0.05"/><path d="M571.64,730.064s-3.206,1.1-4.487,0-3.573.275-3.573.275l1.012,5.954a29.675,29.675,0,0,1,7.055-.734Z" transform="translate(-427.892 -539.432)" fill="#ffbdc6"/><path d="M571.64,730.064s-3.206,1.1-4.487,0-3.573.275-3.573.275l1.012,5.954a29.675,29.675,0,0,1,7.055-.734Z" transform="translate(-427.892 -539.432)" opacity="0.05"/><path d="M575.9,662.3l-2.925-1.009s-3.206,2.84-5.324.458,1.923-12.276,1.923-12.276l4.3-6.963,3.115,9.8,2.84,4.762Z" transform="translate(-430.324 -478.077)" fill="#565388"/><path d="M575.9,662.3l-2.925-1.009s-3.206,2.84-5.324.458,1.923-12.276,1.923-12.276l4.3-6.963,3.115,9.8,2.84,4.762Z" transform="translate(-430.324 -478.077)" opacity="0.05"/><path d="M585.982,621.07l6.6.914,1.284,6.046-8.152-.458Z" transform="translate(-412.465 -437.398)" fill="#565388"/><path d="M585.982,621.07l6.6.914,1.284,6.046-8.152-.458Z" transform="translate(-412.465 -437.398)" opacity="0.05"/><path d="M631.292,595.45s2.748,10.533,11.536,2.931l2.381,30.227s-2.931,4.671-3.39,8.874-8.427-13.015-13.19-13.1-9.48-6.732-9.48-6.732l5.36-11.039Z" transform="translate(-467.025 -444.937)" opacity="0.1"/><path d="M631.6,594.52s2.748,10.533,11.536,2.931l2.381,30.227s-2.931,4.671-3.39,8.874-8.427-13.015-13.19-13.1-9.48-6.732-9.48-6.732l5.36-11.039Z" transform="translate(-467.243 -444.282)" fill="#f2f1f2"/><path d="M590.777,570.676a24.363,24.363,0,0,0-6.046-.275c-2.2.367-2.473,4.4-2.473,4.4s-6.229,2.2-8.335,1.479c0,0-10.353-.734-10.353,2.381s3.3,4.561,3.3,4.561,14.373.485,14.473.458c3.3-.917-.092,0-.092,0l-5.954,8.977,5.5,7.6,5.863-4.3s.734-4.032,2.662-6.046c1.372-1.44,3.168-7.924,4.082-11.512a5.886,5.886,0,0,0-.666-4.493Z" transform="translate(-427.885 -427.217)" opacity="0.1"/><path d="M584.022,576.69a13.442,13.442,0,0,0-.855,1.378c-1.923,3.665-6.4-2.292-4.848-4.351l1.068-1C579,577.447,582.845,576.944,584.022,576.69Z" transform="translate(-438.047 -428.93)" opacity="0.1"/><path d="M623.1,613.37H623S626.4,612.453,623.1,613.37Z" transform="translate(-469.736 -457.269)" opacity="0.1"/><path d="M589.854,570.676a24.363,24.363,0,0,0-6.046-.275c-2.2.367-2.473,4.4-2.473,4.4s-6.229,2.2-8.335,1.479l.367-1.009s-5.585,1.739-4.946-4.132c0,0-5.771,4.4-5.771,7.51s3.3,4.573,3.3,4.573,14.373.485,14.473.458c3.3-.917-.092,0-.092,0l-5.954,8.977,5.5,7.6,5.863-4.3s.734-4.032,2.662-6.046c1.372-1.44,3.168-7.924,4.082-11.512a5.886,5.886,0,0,0-.665-4.493Z" transform="translate(-427.237 -427.217)" fill="#565388"/><path d="M718.35,672.25v.5A1.094,1.094,0,0,1,718.35,672.25Z" transform="translate(-536.861 -499.02)" opacity="0.1"/><path d="M734.495,693.972a10.468,10.468,0,0,1-5.984.053l-.491-1.3,5.954-1.284S734.19,692.493,734.495,693.972Z" transform="translate(-543.691 -512.533)" opacity="0.1"/><path d="M689.62,579.34s5.129,3.206,6.963,3.665,6.6,2.106,6.6,2.106l1.923,6.508s.734,4.946,0,7.691-7.6,7.969-7.235,7.143l-.183,7.235s0,10.533,1.479,12.719-2.8-2.153-2.8-2.153-5.176-7.649-5.815-12.5.364-23.525.364-23.525L690,586.942S691.909,582,689.62,579.34Z" transform="translate(-516.65 -433.592)" opacity="0.1"/><path d="M690.55,579.34s5.129,3.206,6.963,3.665,6.6,2.106,6.6,2.106l1.923,6.508s.734,4.946,0,7.691,2.473,15.207,2.473,15.207a10.209,10.209,0,0,1-7.055,0c-.275-.092-3.023-7.235-2.662-8.06l-.183,7.235s0,10.533,1.479,12.719a16.965,16.965,0,0,0,3.39,3.665l-2.931.367s-8.436-13.82-9.078-18.665.367-23.542.367-23.542l-.917-1.284S692.839,582,690.55,579.34Z" transform="translate(-517.305 -433.592)" fill="#565388"/><path d="M566.575,643.574s-6.138-8.874-5.863-13.015c0,0-.734,5.679-1.556,6.046s-9.069-2.2-9.069-2.2-.367-2.662.55-3.573,3.757-17.863,3.757-17.863,1.009-4.579,5.4-4.854,14.29,22.075,14.29,22.075S575.552,643.574,566.575,643.574Z" transform="translate(-418.339 -453.853)" fill="#7679b4"/><path d="M551.176,687.11s.183,12.823-2.106,14.932,6.688,3.206,6.688,3.206-1.556-3.115-.275-5.588,2.106-12.551,2.106-12.551Z" transform="translate(-417.411 -509.484)" fill="#ffbdc6"/><path d="M531.736,734.219s-.917-2.289-3.39-.458c0,0-2.2,5.129-6.046,5.863s-.55,2.931-.367,3.023,6.413,1.1,7.877.642,7.419-1.556,7.419-1.556-.275-6.046-1.183-6.508S535.584,737.966,531.736,734.219Z" transform="translate(-397.515 -541.836)" opacity="0.05"/><path d="M531.736,734.809s-.917-2.289-3.39-.458c0,0-2.2,5.129-6.046,5.863s-.55,2.931-.367,3.023,6.413,1.1,7.877.642,7.422-1.553,7.422-1.553-.275-6.046-1.183-6.507S535.584,738.562,531.736,734.809Z" transform="translate(-397.515 -542.251)" fill="#7679b4"/><path d="M610.282,541.97a42.605,42.605,0,0,0,2.5,3.482.967.967,0,0,1-.139,1.39l-.358.281a.967.967,0,0,1-1.378-.192,10.924,10.924,0,0,0-2.958-2.8.967.967,0,0,1-.089-1.58l1.021-.8a.967.967,0,0,1,1.405.225Z" transform="translate(-458.813 -406.971)" fill="#565388"/><path d="M666.753,569.895a4.331,4.331,0,0,1-.958-2.985l-7.794,1.3a25.139,25.139,0,0,1,1.331,3.736A7.324,7.324,0,0,0,666.753,569.895Z" transform="translate(-494.383 -424.839)" opacity="0.1"/><circle cx="7.327" cy="7.327" r="7.327" transform="translate(159.597 132.467)" fill="#ffbdc6"/><path d="M643.962,526a18.257,18.257,0,0,1,2.008-.556,3.344,3.344,0,0,1,2.313,1.109,5.532,5.532,0,0,0,2.088,1.509,5.165,5.165,0,0,0,1.674.112,1.555,1.555,0,0,0,.887-.225,1.118,1.118,0,0,0,.3-.453,4.3,4.3,0,0,0-.027-3.487.591.591,0,0,1-.083-.379.572.572,0,0,1,.127-.21,6.406,6.406,0,0,0,1.455-2.242,1.877,1.877,0,0,0-.926-2.263,1.743,1.743,0,0,0-1.378,0,5.582,5.582,0,0,1-1.183.624c-.742.154-1.378-.444-1.958-.887a5.877,5.877,0,0,0-3.109-1.159,3.011,3.011,0,0,0-1.452.192,5.8,5.8,0,0,0-1.183.887c-1.322,1.068-3.174,1.367-4.83,1.949-.317.112-.669.278-.728.592s.3.63.651.766a2.382,2.382,0,0,1,1,.5c.3.355.2.858.254,1.3.109.887.887,1.37,1.748,1.627C642.32,525.539,643.255,526.119,643.962,526Z" transform="translate(-480.262 -390.025)" opacity="0.1"/><path d="M644.061,525.437a18.271,18.271,0,0,1,2.008-.556,3.344,3.344,0,0,1,2.313,1.109,5.534,5.534,0,0,0,2.088,1.509,5.165,5.165,0,0,0,1.674.112,1.556,1.556,0,0,0,.887-.225,1.117,1.117,0,0,0,.3-.453,4.3,4.3,0,0,0-.027-3.487.591.591,0,0,1-.083-.379.572.572,0,0,1,.127-.21,6.406,6.406,0,0,0,1.455-2.242,1.877,1.877,0,0,0-.926-2.263,1.742,1.742,0,0,0-1.378,0,5.584,5.584,0,0,1-1.183.624c-.742.154-1.378-.444-1.958-.887a5.878,5.878,0,0,0-3.067-1.136,3.01,3.01,0,0,0-1.452.192,5.8,5.8,0,0,0-1.183.887c-1.322,1.068-3.174,1.367-4.83,1.949-.316.112-.668.278-.728.592s.3.63.651.766a2.382,2.382,0,0,1,1,.5c.3.355.2.858.254,1.3.109.887.887,1.37,1.748,1.627C642.419,524.975,643.354,525.555,644.061,525.437Z" transform="translate(-480.361 -389.645)" fill="#a66477"/><path d="M638.29,664.84s5.233.887,6.54,3.712S654,679.02,654,679.02" transform="translate(-480.503 -493.802)" opacity="0.05"/><g transform="translate(131.675 158.553)" opacity="0.05"><path d="M559.339,691.337c-.825.367-9.069-2.2-9.069-2.2a8.753,8.753,0,0,1,.027-2.4,7.3,7.3,0,0,0-.21,3.041s8.244,2.565,9.069,2.2c.272-.121.535-.825.766-1.716C559.738,690.834,559.543,691.254,559.339,691.337Z" transform="translate(-550.013 -667.777)"/><path d="M557.435,622.63a5.4,5.4,0,0,0-.172.568s-1.988,11.87-3.174,16.269C555.187,635.9,557.258,623.686,557.435,622.63Z" transform="translate(-552.884 -622.63)"/><path d="M592.233,694.835s-6.138-8.874-5.863-13.015c0,0-.065.515-.18,1.242.278,4.33,5.86,12.417,5.86,12.417,4.268,0,6.176-3.023,7-6.2C598.14,692.205,596.214,694.835,592.233,694.835Z" transform="translate(-575.489 -664.312)"/></g><path d="M552.762,686.706s5.6,3.082,7.614,1.615a2.907,2.907,0,0,0,.734-3.757L559.55,682h-5.221l-1.739,3.023Z" transform="translate(-420.153 -505.886)" fill="#7679b4"/><path d="M612.32,721.05s.367-7.327-8.977-7.235-.367,0-.367,0a11.324,11.324,0,0,0-8.244,1.479,18.273,18.273,0,0,1-9.8,2.014s-4.215,6.963-.275,8.977,5.221-.748,5.221-.748,8.06,1.556,9.894-.55a9.4,9.4,0,0,0,10.167,2.029S614.518,724.987,612.32,721.05Z" transform="translate(-441.548 -528.126)" fill="#7679b4"/></g></svg>