<svg xmlns="http://www.w3.org/2000/svg" xmlns:xlink="http://www.w3.org/1999/xlink" width="254.457" height="211.633" viewBox="0 0 254.457 211.633"><defs><linearGradient id="a" x1="0.505" y1="1.007" x2="0.505" gradientUnits="objectBoundingBox"><stop offset="0" stop-color="gray" stop-opacity="0.251"/><stop offset="0.54" stop-color="gray" stop-opacity="0.122"/><stop offset="1" stop-color="gray" stop-opacity="0.102"/></linearGradient><linearGradient id="b" x1="0.5" y1="1" x2="0.5" y2="0" xlink:href="#a"/></defs><g transform="translate(0.004 0.002)"><path d="M243.068,58.257c-16.313-.567-31.849-5.832-46.685-11.594s-29.53-12.146-45.452-15.2c-10.241-1.963-21.954-2.241-30.2,3.249-7.942,5.293-10.508,14.4-11.887,22.869-1.038,6.367-1.648,13.069,1.195,19.027,1.976,4.139,5.48,7.617,7.9,11.582,8.436,13.792,2.473,30.8-6.667,44.268-4.285,6.319-9.263,12.351-12.572,19.07s-4.839,14.43-1.943,21.291c2.868,6.805,9.706,11.907,17.114,15.5,15.045,7.3,32.767,9.384,50.06,10.566,38.269,2.619,76.74,1.485,115.109.35,14.2-.421,28.462-.847,42.43-3.042,7.758-1.22,15.766-3.153,21.4-7.826,7.148-5.931,8.92-15.973,4.129-23.411-8.035-12.474-30.246-15.572-35.869-28.958-3.09-7.37.083-15.577,4.577-22.412,9.638-14.659,25.792-27.522,26.642-44.278.585-11.509-7.181-23.035-19.189-28.482-12.585-5.706-30.04-4.991-39.32,4.459C274.274,55.013,257.473,58.756,243.068,58.257Z" transform="translate(-95.23 -30.18)" fill="#0f0a3c" opacity="0.1"/><ellipse cx="76.616" cy="10.364" rx="76.616" ry="10.364" transform="translate(45.245 186.484)" fill="#0f0a3c" opacity="0.1"/><rect width="2.233" height="18.405" rx="1.117" transform="translate(162.016 73.048)" fill="#3a3768"/><rect width="1.253" height="6.059" rx="0.626" transform="translate(87.804 58.628)" fill="#3a3768"/><rect width="1.411" height="10.546" rx="0.706" transform="translate(87.759 69.724)" fill="#3a3768"/><rect width="1.343" height="10.637" rx="0.672" transform="translate(87.781 83.959)" fill="#3a3768"/><rect width="74.708" height="151.833" rx="10" transform="translate(88.512 38.605)" fill="#3a3768"/><path d="M524.275,199H515.7v1.031a4.885,4.885,0,0,1-4.887,4.885H483.563a4.885,4.885,0,0,1-4.887-4.885V199h-8.023a5.933,5.933,0,0,0-5.933,5.933V337a5.933,5.933,0,0,0,5.933,5.933h53.621A5.933,5.933,0,0,0,530.208,337V204.943A5.933,5.933,0,0,0,524.275,199Z" transform="translate(-371.593 -156.45)" fill="#0f0a3c"/><rect width="10.432" height="2.117" rx="1.059" transform="translate(118.66 43.14)" fill="#e6e8ec"/><circle cx="1.202" cy="1.202" r="1.202" transform="translate(130.671 42.996)" fill="#e6e8ec"/><path d="M789.265,156.848s-21.223-1.28-18.722,13.591a3.614,3.614,0,0,0,1.885,3.821s.038-1.1,2.178-.726a9.956,9.956,0,0,0,2.306.111,4.8,4.8,0,0,0,2.818-1.152h0s5.966-2.465,8.285-12.214c0,0,1.716-2.127,1.648-2.674l-3.582,1.53s1.225,2.584.252,4.731c0,0-.116-4.638-.8-4.537-.139.02-1.86.895-1.86.895s2.1,4.5.517,7.771c0,0,.6-5.545-1.175-7.446l-2.521,1.472s2.46,4.648.791,8.441c0,0,.429-5.817-1.323-8.083l-2.284,1.782s2.311,4.58.9,7.725c0,0-.184-6.77-1.4-7.282a14.039,14.039,0,0,0-2.3,2.485s1.583,3.327.6,5.081c0,0-.6-4.512-1.1-4.537,0,0-1.991,2.989-2.2,5.041a10.86,10.86,0,0,1,1.716-5.323,6,6,0,0,0-3.05,1.578s.31-2.112,3.541-2.3a13.863,13.863,0,0,1,2.084-2.4,13.065,13.065,0,0,0-5.159.595s1.714-1.994,5.749-1.086l2.256-1.842s-4.229-.577-6.024.061c0,0,2.064-1.764,6.631-.479l2.455-1.467a22.524,22.524,0,0,0-5.754-.5s2.268-1.222,6.475.1l1.764-.789s-2.641-.519-3.415-.6-.814-.295-.814-.295a9.162,9.162,0,0,1,4.963.552S789.328,157.082,789.265,156.848Z" transform="translate(-600.179 -124.902)" fill="#0f0a3c"/><path d="M733.689,130.653s-9.578-.577-8.459,6.143a1.639,1.639,0,0,0,.852,1.727s.018-.5.986-.33a4.413,4.413,0,0,0,1.041.05,2.158,2.158,0,0,0,1.273-.524h0s2.7-1.114,3.745-5.52c0,0,.774-.96.744-1.207l-1.618.691a2.908,2.908,0,0,1,.118,2.137s-.053-2.095-.363-2.047c-.063,0-.842.406-.842.406s.953,2.034.234,3.511c0,0,.272-2.505-.532-3.365l-1.139.675a5.028,5.028,0,0,1,.358,3.814s.194-2.629-.6-3.652l-1.031.807s1.044,2.069.408,3.491c0,0-.086-3.06-.633-3.292a6.322,6.322,0,0,0-1.041,1.124s.716,1.512.272,2.3c0,0-.272-2.039-.5-2.049a6.785,6.785,0,0,0-.993,2.268,4.92,4.92,0,0,1,.776-2.4,2.712,2.712,0,0,0-1.379.713s.141-.955,1.6-1.038a6.9,6.9,0,0,1,.943-1.089,5.909,5.909,0,0,0-2.331.27,2.618,2.618,0,0,1,2.6-.492l1.008-.832a8.7,8.7,0,0,0-2.722.028s.933-.8,3-.217l1.109-.663a10.1,10.1,0,0,0-2.6-.224,4,4,0,0,1,2.926.045l.794-.355s-1.195-.234-1.545-.272-.368-.134-.368-.134a4.131,4.131,0,0,1,2.243.252A10.264,10.264,0,0,0,733.689,130.653Z" transform="translate(-566.373 -105.321)" fill="#0f0a3c"/><ellipse cx="6.788" cy="1.147" rx="6.788" ry="1.147" transform="translate(211.025 193.773)" fill="#0f0a3c" opacity="0.1"/><ellipse cx="6.788" cy="1.147" rx="6.788" ry="1.147" transform="translate(16.169 203.185)" fill="#0f0a3c" opacity="0.1"/><ellipse cx="6.788" cy="1.147" rx="6.788" ry="1.147" transform="translate(42.425 209.337)" fill="#0f0a3c" opacity="0.1"/><ellipse cx="10.135" cy="1.714" rx="10.135" ry="1.714" transform="translate(192.819 205.496)" fill="#0f0a3c"/><path d="M889.263,827.3a2.952,2.952,0,0,0,.965-1.459,1.3,1.3,0,0,0-.676-1.485c-.62-.237-1.283.194-1.785.628a2.383,2.383,0,0,1-1.737.837,2.642,2.642,0,0,0,.819-2.473,1.041,1.041,0,0,0-.229-.5c-.343-.368-.968-.212-1.379.081-1.311.92-1.676,2.7-1.684,4.3a8.092,8.092,0,0,1-.025-1.764,1.823,1.823,0,0,0-.665-1.57,2,2,0,0,0-1.008-.237,2.1,2.1,0,0,0-1.648.469,1.625,1.625,0,0,0,.065,2.016,6.418,6.418,0,0,0,1.706,1.366,3.781,3.781,0,0,1,1.217,1.162,1.048,1.048,0,0,1,.091.209h3.682A10.349,10.349,0,0,0,889.263,827.3Z" transform="translate(-682.118 -622.891)" fill="#0f0a3c"/><path d="M280.568,753.45s1.386,1.812-.638,4.537-3.693,5.041-3.025,6.747c0,0,3.055-5.079,5.545-5.149S283.3,756.5,280.568,753.45Z" transform="translate(-231.006 -571.15)" fill="#0f0a3c"/><path d="M280.81,753.45a2.227,2.227,0,0,1,.282.57c2.425,2.848,3.718,5.507,1.386,5.573-2.17.063-4.774,3.945-5.4,4.925.02.076.045.149.073.224,0,0,3.055-5.079,5.545-5.149S283.545,756.5,280.81,753.45Z" transform="translate(-231.247 -571.15)" opacity="0.1"/><path d="M301.148,761.4c0,.638-.071,1.154-.159,1.154s-.159-.517-.159-1.154.088-.338.176-.338S301.148,760.761,301.148,761.4Z" transform="translate(-249.011 -576.79)" fill="#ffd037"/><path d="M302.361,764.329c-.56.3-1.049.489-1.089.411s.376-.388.935-.693.34-.083.381,0S302.92,764.024,302.361,764.329Z" transform="translate(-249.34 -578.96)" fill="#ffd037"/><path d="M253.633,753.45s-1.386,1.812.638,4.537,3.693,5.041,3.025,6.747c0,0-3.052-5.079-5.545-5.149S250.893,756.5,253.633,753.45Z" transform="translate(-211.382 -571.15)" fill="#0f0a3c"/><path d="M253.617,753.45a2.269,2.269,0,0,0-.285.57c-2.425,2.848-3.715,5.507-1.386,5.573,2.173.063,4.776,3.945,5.4,4.925a1.959,1.959,0,0,1-.076.224s-3.052-5.079-5.545-5.149S250.877,756.5,253.617,753.45Z" transform="translate(-211.366 -571.15)" opacity="0.1"/><path d="M252.65,761.4c0,.638.073,1.154.161,1.154s.159-.517.159-1.154-.088-.338-.176-.338S252.65,760.761,252.65,761.4Z" transform="translate(-212.975 -576.79)" fill="#ffd037"/><path d="M248.138,764.329c.56.3,1.046.489,1.089.411s-.378-.388-.938-.693-.338-.083-.381,0S247.578,764.024,248.138,764.329Z" transform="translate(-209.345 -578.96)" fill="#ffd037"/><path d="M254.4,791.1s3.871-.121,5.041-.95,5.956-1.825,6.243-.491,5.82,6.626,1.449,6.662-10.158-.681-11.322-1.389S254.4,791.1,254.4,791.1Z" transform="translate(-214.284 -597.745)" fill="#a8a8a8"/><path d="M267.209,802.051c-4.371.035-10.158-.68-11.322-1.389-.885-.542-1.24-2.48-1.359-3.372H254.4s.252,3.12,1.409,3.831,6.952,1.424,11.322,1.389c1.26,0,1.7-.459,1.674-1.124C268.628,801.794,268.147,802.044,267.209,802.051Z" transform="translate(-214.284 -603.94)" opacity="0.2"/><path d="M377.46,474.88a.232.232,0,0,0,.275.035A.973.973,0,0,1,377.46,474.88Z" transform="translate(-306.327 -362.794)" fill="url(#a)"/><path d="M284.841,231.265c-.532-.156-1.288-.411-2.2-.731a11.8,11.8,0,0,0,2.042-4.166l-.078.03c.025-.093.053-.184.078-.277-1.749.721-3.688-.5-4.92-2.069s-2.072-3.514-3.42-4.958a15.8,15.8,0,0,0-1.812-1.58,2.408,2.408,0,0,0-1.316-.653c-.786-.023-1.4.756-2.163.991a2.929,2.929,0,0,1-1.512-.055,50.635,50.635,0,0,0-5.835-1.512,6.742,6.742,0,0,0-3.166.36c-1.008.388-1.462,1.157-2.268,1.764-.875.66-2.616.645-3.647.756a26.123,26.123,0,0,1-3.766.159,8.539,8.539,0,0,0-2.168.081,8.336,8.336,0,0,0-3.821,2.7,2.016,2.016,0,0,0-.633,1.008,1.338,1.338,0,0,0,0,.333,2.165,2.165,0,0,0,.151.882,11.7,11.7,0,0,0,1.437,2.939,8.81,8.81,0,0,1,1.26,2.077,4.091,4.091,0,0,1,.194,1.2,9.183,9.183,0,0,1-.134,1.288,16.382,16.382,0,0,1-.97,3.425,6.586,6.586,0,0,0-.567,1.807,3.255,3.255,0,0,0,0,.383c-.076,1.974,1.893,3.4,2.268,5.361a3.575,3.575,0,0,1,.055.491,3.352,3.352,0,0,1-1.744,2.9c.088.035.179.066.27.1a2.831,2.831,0,0,1-.27.151c.184.071.373.131.565.187a13.263,13.263,0,0,0-2.876,3.574c-3.393,6.435-26.516,19.058-26.516,19.058s.131.073.343.2c-.086.053-.176.113-.277.181-2,1.351-6.7,5.293-2.452,10.264a54.151,54.151,0,0,1,5.636-7.562c.106-.1.207-.194.3-.282a.688.688,0,0,1,.091.544l15.206-8.663s5.4-3.836,6.911-4.7a12.408,12.408,0,0,1,3.425-1.49l-.176.078a6.842,6.842,0,0,1,1.744-.252c2.692.043,5.606,2.042,6.568,9.959,1.288,10.6.691,12.512.277,12.774a.728.728,0,0,1-.151-.028.228.228,0,0,0,.04.03.732.732,0,0,1-.166-.03.232.232,0,0,0,.222.055.217.217,0,0,0,.169-.02h.2c0,.1-.015.2-.023.295-.02,0-.121.058,0,.066h0c-.03.6-.028,1.26,0,1.928-1.338.076-2.674.156-3.846.229l.106-.562.048-.252c1.026-.083,2-.388,2.115-1.235.252-1.855-2.268-2.846-4.4-2.969s-14.954.744-14.954.744-1.923,2.521,4.174,3.3c.181.1.371.2.562.313a67.582,67.582,0,0,1,7.178,5.175l.217.174-.7.562c3.781.867,7.415,15.471,9.424,22.153s6.41,6.435,10.054,5.447c3.415-.93,3.851-10.984,3.892-12.247v-.129L275.2,310.9l.461.577c.179.093.353.181.524.265a5.869,5.869,0,0,0,8.235-6.873c-1.459-4.89-3.728-12.116-5.24-15.171-1.26-2.558-2.9-6.805-3.894-9.472a3.491,3.491,0,0,0,.376-.181s-.023-.118-.063-.338l.063-.033a95.516,95.516,0,0,1-1.543-13.167v-.466c1.1-.252,1.795-.353,1.795-.353l.02-.237-.129.028.61-7.093s2.243-4.837.527-6.853a4.285,4.285,0,0,1-1.008-2.095c-.287-1.855,0-4.943,4-7.511,6.158-3.96,8.547-7.178,8.547-7.178S288.611,232.379,284.841,231.265Zm-12.23,4.92v-3.277c1.142-.055,2.309.078,3.456,0a8.714,8.714,0,0,0,1.669-.282l.277.194a30.427,30.427,0,0,1-5.4,3.365Zm-17.457,51.371c.451.318.9.648,1.351.978.277,1.616.522,2.757.539,2.836A22.743,22.743,0,0,0,255.154,287.556Z" transform="translate(-183.504 -169.338)" fill="url(#b)"/><path d="M375.97,491l-.272,1.477-.209,1.129-.381,2.067-3.69,2.583s-.333-.285-.882-.733a64.3,64.3,0,0,0-7.025-5.142,7.862,7.862,0,0,0-1.931-.89Z" transform="translate(-294.449 -374.851)" fill="#ffbdc6"/><path d="M375.97,491l-.272,1.477a11.524,11.524,0,0,1-2.435-.126l-8.61.124c-.406-.025-.786-.055-1.142-.093a7.861,7.861,0,0,0-1.931-.89Z" transform="translate(-294.449 -374.851)" opacity="0.1"/><path d="M364.4,483.3s4.3.739,4.555-1.1-2.216-2.831-4.305-2.954-14.637.739-14.637.739-2.213,2.951,5.78,3.446Z" transform="translate(-285.59 -366.049)" fill="#474463"/><path d="M375.97,491l-.272,1.477-.209,1.129-.381,2.067-3.69,2.583s-.333-.285-.882-.733a64.3,64.3,0,0,0-7.025-5.142,7.862,7.862,0,0,0-1.931-.89Z" transform="translate(-294.449 -374.851)" opacity="0.1"/><path d="M375.97,491l-.272,1.477a11.524,11.524,0,0,1-2.435-.126l-8.61.124c-.406-.025-.786-.055-1.142-.093a7.861,7.861,0,0,0-1.931-.89Z" transform="translate(-294.449 -374.851)" opacity="0.1"/><path d="M364.4,483.255s4.305.736,4.552-1.109-2.216-2.828-4.305-2.952-14.637.739-14.637.739-2.213,2.952,5.78,3.443Z" transform="translate(-285.582 -366.012)" opacity="0.1"/><rect width="22.508" height="26.69" transform="translate(65.714 56.614)" fill="#474463"/><rect width="22.508" height="26.69" transform="translate(65.714 56.735)" opacity="0.1"/><path d="M225.862,429.488a3.6,3.6,0,0,0-1.371.97,54.366,54.366,0,0,0-5.517,7.516c-4.154-4.948.444-8.857,2.4-10.2.476-.325.8-.5.8-.5Z" transform="translate(-186.527 -327.184)" fill="#ffbdc6"/><path d="M382.29,288.22s1.106,7.748,4.92,9.593-4.92,5.293-4.92,5.293l-11.93-4.431s6.765-2.216,5.412-8.734Z" transform="translate(-301.016 -223.182)" fill="#ffbdc6"/><path d="M324.21,473.16l-.27,1.472-.219,1.134-.381,2.067-3.69,2.581s-.333-.282-.882-.731a64.107,64.107,0,0,0-7.027-5.142,7.814,7.814,0,0,0-1.931-.89Z" transform="translate(-255.728 -361.508)" fill="#ffbdc6"/><path d="M324.24,473.16l-.27,1.472a11.533,11.533,0,0,1-2.435-.126l-8.61.123c-.406-.025-.789-.055-1.144-.093a7.812,7.812,0,0,0-1.931-.89Z" transform="translate(-255.758 -361.508)" opacity="0.1"/><path d="M312.674,465.465s4.305.736,4.55-1.107-2.213-2.831-4.305-2.954-14.634.738-14.634.738-2.216,2.952,5.78,3.446Z" transform="translate(-246.896 -352.706)" fill="#474463"/><path d="M350.3,483.246l-.381,2.067-3.69,2.581s-.333-.282-.882-.731l4.88-4Z" transform="translate(-282.31 -368.987)" opacity="0.1"/><path d="M373.335,495.187c-.169-.083-.338-.169-.5-.252l-.454-.572-5.951-7.546v.131c-.04,1.26-.469,11.247-3.811,12.169-3.567.983-7.869,1.23-9.83-5.412s-5.545-21.155-9.225-22.017l5.475-4.489a32.8,32.8,0,0,1,5.1,8.3c-.055-.252-2.558-11.947-.5-14.017h17.959s2.773,7.9,4.673,11.809c1.48,3.037,3.7,10.218,5.129,15.078A5.769,5.769,0,0,1,373.335,495.187Z" transform="translate(-280.971 -352.772)" fill="#474463"/><path d="M400.222,419.13c-2.773,1.641-14.944.973-18.9.706l-1.079-.078c-.116,0,.018-.066.018-.066l.111-1.117,2.952-7.5,15.8-9.165a13.758,13.758,0,0,0-.4,4.134A95.987,95.987,0,0,0,400.222,419.13Z" transform="translate(-308.37 -308.216)" opacity="0.1"/><path d="M399.832,417.683c-2.773,1.641-14.944.973-18.9.706l-1.079-.076-.179-.015.2-.05.973-.252,2.09-8.363,15.8-9.162a13.761,13.761,0,0,0-.4,4.134A95.931,95.931,0,0,0,399.832,417.683Z" transform="translate(-307.98 -307.139)" fill="#f2f1f2"/><path d="M398.823,404.6c-3.214.741-10.286,2.916-13,8.166-1.812,3.5-3.337,5-4.4,5.623l-1.079-.076a.622.622,0,0,0,.018-.066l.973-.252,2.09-8.363,15.8-9.162A13.786,13.786,0,0,0,398.823,404.6Z" transform="translate(-308.481 -307.139)" opacity="0.1"/><path d="M234.3,427.29l3.69,2.213a3.6,3.6,0,0,0-1.371.97c-.308-.9-2.238-2.15-3.115-2.684C233.976,427.469,234.3,427.29,234.3,427.29Z" transform="translate(-198.652 -327.199)" opacity="0.1"/><path d="M376.982,471.725a.219.219,0,0,1-.252-.035A.874.874,0,0,0,376.982,471.725Z" transform="translate(-305.781 -360.408)" opacity="0.1"/><path d="M277.979,268.511a7.313,7.313,0,0,1-5.659-2.092s-9.83,2.831-13.16,9.225S233.2,294.585,233.2,294.585s3.937,2.213,3.567,3.32l14.884-8.61s5.293-3.811,6.763-4.673,9.6-6.15,11.317,8.24,0,12.668,0,12.668,2.46.862,6.027-6.027,14.634-8.487,14.634-8.487l.615-7.254s2.2-4.809.5-6.805a4.284,4.284,0,0,1-.986-2.082c-.28-1.843,0-4.912,3.917-7.463,6.027-3.937,8.363-7.133,8.363-7.133s.123-2.339-3.567-3.446-18.695-7.133-18.695-7.133l-.5,2.092,11.839,8.356s-5.9,4.789-10.586,4.673C281.291,264.821,282.161,268.387,277.979,268.511Z" transform="translate(-198.428 -194.371)" fill="#ff748e"/><path d="M398.1,292.684a24.013,24.013,0,0,1-.681-3L390.9,291.4a7.146,7.146,0,0,1-.149,3.761,7.01,7.01,0,0,0,7.347-2.478Z" transform="translate(-316.267 -224.274)" opacity="0.1"/><circle cx="7.01" cy="7.01" r="7.01" transform="translate(69.407 56.738)" fill="#ffbdc6"/><path d="M356.6,219.679a49.147,49.147,0,0,1,5.709,1.512,2.833,2.833,0,0,0,1.477.058c.744-.232,1.349-1.008,2.12-.986a2.254,2.254,0,0,1,1.285.648,15.556,15.556,0,0,1,1.764,1.573c1.321,1.434,2.14,3.365,3.345,4.925s3.105,2.773,4.817,2.057c-1.164,4.537-4.978,7.993-9.1,8.275-1.646.111-3.332-.232-4.925.252a4.349,4.349,0,0,1-1.243.3c-.917,0-1.656-.842-2.228-1.661-1.341-1.926-2.4-4.113-3.912-5.87a3.225,3.225,0,0,0-1.792-1.238,3.316,3.316,0,0,0-1.981.555,9.34,9.34,0,0,0-2.9,2.016,4.012,4.012,0,0,0-.978,3.529,8.246,8.246,0,0,1,.595,1.976c.015,1.117-.973,1.936-1.167,3.025a11.371,11.371,0,0,0-.048,1.376,5.631,5.631,0,0,1-2.079,3.652,2.624,2.624,0,0,0-.953,1.321c-.078.383,0,.791-.05,1.18a2.15,2.15,0,0,1-1.969,1.588,5.729,5.729,0,0,1-2.954-.35,3.409,3.409,0,0,0,1.653-3.614c-.381-2-2.387-3.428-2.216-5.462a6.355,6.355,0,0,1,.555-1.8,16.4,16.4,0,0,0,.948-3.4,5.738,5.738,0,0,0-.058-2.715,8.4,8.4,0,0,0-1.225-2.064,11.713,11.713,0,0,1-1.419-2.909,2.016,2.016,0,0,1-.136-.96,1.976,1.976,0,0,1,.617-1.008c1.1-1.152,2.268-2.352,3.738-2.679a8.3,8.3,0,0,1,2.122-.083,24.7,24.7,0,0,0,3.688-.156c1.008-.118,2.712-.1,3.567-.756.8-.612,1.245-1.376,2.226-1.764A6.508,6.508,0,0,1,356.6,219.679Z" transform="translate(-276.452 -171.874)" opacity="0.1"/><path d="M428.67,507.07s4.058,8,2.828,10.453" transform="translate(-344.629 -386.871)" opacity="0.1"/><path d="M440.079,564.617l-5.943-7.536v.131s-.343-2.44.789-1.621c2.48,1.795,6.447,4.736,6.533,5.243S440.653,563.364,440.079,564.617Z" transform="translate(-348.68 -423.036)" opacity="0.1"/><g transform="translate(34.906 55.319)" opacity="0.1"><path d="M421.2,309.4a3.009,3.009,0,0,1-1.119,3.115A2.768,2.768,0,0,0,422.6,309.3a7.919,7.919,0,0,1-1.4.1Z" transform="translate(-373.11 -294.268)"/><path d="M235.083,344.3s22.629-12.545,25.961-18.939c2.382-4.59,8.124-7.342,11.173-8.532-2.223.756-9.714,3.607-12.527,9.023-3.32,6.395-25.961,18.942-25.961,18.942Z" transform="translate(-233.73 -299.9)"/><path d="M425.268,263.813a26.658,26.658,0,0,0,7.531-4.187l-11.816-8.368.27-1.144-1.132-.454-.492,2.092,11.809,8.363a28.531,28.531,0,0,1-6.17,3.7Z" transform="translate(-372.774 -249.66)"/><path d="M442.27,414.086a29.378,29.378,0,0,1,4.628-1.17l.02-.237A31.372,31.372,0,0,0,442.27,414.086Z" transform="translate(-389.707 -371.591)"/><path d="M355.9,402.322h-.108a.222.222,0,0,1-.252-.035.884.884,0,0,0,.252.035c.4-.234,1.008-2.072-.252-12.7-1.356-11.342-6.692-10.458-9.611-9.152,2.984-.822,7.09-.111,8.257,9.643,1.273,10.632.665,12.469.252,12.7A2.724,2.724,0,0,0,355.9,402.322Z" transform="translate(-317.65 -346.941)"/><path d="M378.942,471.235a.885.885,0,0,1-.252-.035A.222.222,0,0,0,378.942,471.235Z" transform="translate(-342.153 -415.36)"/></g><path d="M356.6,218.712a49.657,49.657,0,0,1,5.709,1.512,2.833,2.833,0,0,0,1.477.055c.744-.229,1.349-1.008,2.12-.986a2.351,2.351,0,0,1,1.285.648,15.807,15.807,0,0,1,1.764,1.573c1.321,1.434,2.14,3.365,3.345,4.925s3.105,2.773,4.817,2.057c-1.164,4.537-4.978,7.993-9.1,8.275-1.646.113-3.332-.229-4.925.252a4.268,4.268,0,0,1-1.243.3c-.917,0-1.656-.842-2.228-1.661-1.341-1.926-2.4-4.111-3.912-5.868a3.217,3.217,0,0,0-1.792-1.24,3.318,3.318,0,0,0-1.981.557,9.3,9.3,0,0,0-2.9,2.016,4.012,4.012,0,0,0-.978,3.529,8.246,8.246,0,0,1,.595,1.976c.015,1.119-.973,1.936-1.167,3.025a11.334,11.334,0,0,0-.048,1.376,5.637,5.637,0,0,1-2.079,3.652,2.618,2.618,0,0,0-.953,1.318c-.078.386,0,.791-.05,1.182a2.145,2.145,0,0,1-1.969,1.585,5.679,5.679,0,0,1-2.954-.35,3.406,3.406,0,0,0,1.653-3.612c-.381-2-2.387-3.43-2.216-5.462a6.328,6.328,0,0,1,.555-1.8,16.467,16.467,0,0,0,.948-3.405,5.74,5.74,0,0,0-.058-2.715,8.443,8.443,0,0,0-1.225-2.064,11.738,11.738,0,0,1-1.419-2.906,2.044,2.044,0,0,1-.136-.963,1.986,1.986,0,0,1,.618-1,8.124,8.124,0,0,1,3.738-2.679,8.413,8.413,0,0,1,2.122-.081,25.048,25.048,0,0,0,3.688-.156c1.008-.118,2.712-.1,3.566-.756.8-.61,1.245-1.376,2.226-1.764a6.554,6.554,0,0,1,3.11-.355Z" transform="translate(-276.453 -171.154)" fill="#474463"/><circle cx="14.133" cy="14.133" r="14.133" transform="translate(112.19 102.253)" fill="#fff"/><path d="M557.988,428.5A18.889,18.889,0,1,1,539.1,409.61,18.889,18.889,0,0,1,557.988,428.5Zm-21.072,10,14.012-14.012a1.217,1.217,0,0,0,0-1.724l-1.724-1.711a1.215,1.215,0,0,0-1.722,0l-11.428,11.428-5.336-5.349a1.222,1.222,0,0,0-1.724,0l-1.724,1.734a1.223,1.223,0,0,0,0,1.724l7.922,7.919a1.217,1.217,0,0,0,1.724,0Z" transform="translate(-413.096 -313.976)" fill="#3acc6c"/></g></svg>